<?xml version="1.0" encoding="utf-8"?>
<!-- Generator: Adobe Illustrator 16.0.0, SVG Export Plug-In . SVG Version: 6.00 Build 0)  -->
<!DOCTYPE svg PUBLIC "-//W3C//DTD SVG 1.1//EN" "http://www.w3.org/Graphics/SVG/1.1/DTD/svg11.dtd">
<svg version="1.1" id="Layer_1" xmlns="http://www.w3.org/2000/svg" xmlns:xlink="http://www.w3.org/1999/xlink" x="0px" y="0px"
	 width="500px" height="85px" viewBox="0 0 500 85" enable-background="new 0 0 500 85" xml:space="preserve">
<g>
	<path fill="#FFFFFF" d="M116.134,43.14c1.377-0.223,2.719-0.334,4.024-0.334c1.303,0,2.663,0.111,4.079,0.334v19.729
		c-1.938,0.708-3.959,1.182-6.063,1.425c-2.105,0.241-3.939,0.362-5.504,0.362c-3.279,0-6.147-0.512-8.606-1.536
		c-2.458-1.024-4.508-2.458-6.147-4.303c-1.64-1.845-2.87-4.032-3.688-6.566c-0.82-2.534-1.23-5.29-1.23-8.271
		s0.428-5.748,1.286-8.299c0.856-2.553,2.095-4.76,3.716-6.623c1.621-1.863,3.613-3.316,5.98-4.359
		c2.365-1.043,5.058-1.564,8.075-1.564c1.789,0,3.455,0.111,5.002,0.336c1.545,0.223,3.158,0.689,4.834,1.396
		c-0.075,1.117-0.299,2.207-0.671,3.27c-0.373,1.062-0.782,2.133-1.229,3.213c-1.305-0.447-2.459-0.764-3.464-0.949
		c-1.006-0.188-2.199-0.279-3.577-0.279c-3.577,0-6.325,1.164-8.243,3.492c-1.919,2.328-2.877,5.783-2.877,10.367
		c0,4.582,0.95,8,2.85,10.254s4.694,3.381,8.383,3.381c0.633,0,1.201-0.036,1.704-0.111c0.503-0.074,0.959-0.148,1.369-0.224V43.14z
		"/>
	<path fill="#FFFFFF" d="M131.168,23.134c1.34-0.225,2.662-0.335,3.967-0.335c1.267,0,2.571,0.11,3.912,0.335v29.34
		c0,1.154,0.064,2.086,0.196,2.793c0.13,0.709,0.335,1.258,0.614,1.649s0.643,0.662,1.09,0.811c0.447,0.149,1.006,0.224,1.676,0.224
		c0.299,0,0.624-0.02,0.979-0.057c0.354-0.037,0.699-0.092,1.033-0.167c0.41,1.528,0.615,3.018,0.615,4.471c0,0.298,0,0.568,0,0.81
		c0,0.244-0.037,0.514-0.111,0.811c-0.597,0.187-1.312,0.316-2.151,0.392c-0.839,0.073-1.612,0.112-2.319,0.112
		c-2.869,0-5.17-0.791-6.902-2.376c-1.732-1.583-2.598-4.163-2.598-7.739V23.134z"/>
	<path fill="#FFFFFF" d="M163.915,44.984c0-0.894-0.149-1.62-0.446-2.179c-0.299-0.56-0.709-0.997-1.23-1.314
		c-0.521-0.315-1.164-0.529-1.928-0.643c-0.764-0.111-1.611-0.167-2.543-0.167c-2.012,0-4.154,0.392-6.426,1.174
		c-0.522-0.969-0.914-1.882-1.174-2.738c-0.262-0.856-0.392-1.882-0.392-3.074c1.64-0.559,3.278-0.968,4.918-1.229
		c1.639-0.26,3.167-0.391,4.583-0.391c3.873,0,6.901,0.932,9.08,2.794c2.181,1.863,3.27,4.844,3.27,8.941v16.766
		c-1.305,0.41-2.887,0.802-4.75,1.174s-3.968,0.558-6.314,0.558c-1.9,0-3.643-0.167-5.226-0.502
		c-1.583-0.336-2.944-0.895-4.079-1.677c-1.137-0.782-2.012-1.788-2.627-3.018s-0.922-2.738-0.922-4.526
		c0-1.789,0.381-3.287,1.145-4.5c0.764-1.209,1.752-2.179,2.963-2.905s2.561-1.247,4.052-1.564c1.489-0.316,2.979-0.476,4.47-0.476
		c1.081,0,2.273,0.057,3.577,0.168V44.984z M163.915,50.741c-0.446-0.074-0.932-0.141-1.452-0.195
		c-0.523-0.057-0.988-0.085-1.398-0.085c-1.826,0-3.27,0.327-4.33,0.979c-1.062,0.652-1.593,1.704-1.593,3.157
		c0,0.969,0.204,1.714,0.614,2.236c0.41,0.521,0.903,0.902,1.481,1.145c0.577,0.244,1.192,0.392,1.845,0.447
		c0.65,0.056,1.219,0.084,1.703,0.084c0.56,0,1.117-0.047,1.678-0.14c0.559-0.093,1.042-0.177,1.452-0.251V50.741z"/>
	<path fill="#FFFFFF" d="M184.256,51.411c-2.086-0.596-3.716-1.48-4.889-2.654c-1.174-1.174-1.762-2.934-1.762-5.281
		c0-2.831,1.016-5.048,3.047-6.65c2.029-1.602,4.796-2.402,8.299-2.402c1.452,0,2.887,0.131,4.303,0.391
		c1.416,0.262,2.85,0.652,4.303,1.174c-0.074,0.969-0.261,1.975-0.559,3.018c-0.299,1.043-0.652,1.957-1.062,2.738
		c-0.895-0.372-1.882-0.699-2.962-0.978c-1.081-0.279-2.217-0.42-3.409-0.42c-1.267,0-2.255,0.196-2.962,0.587
		c-0.709,0.392-1.062,1.016-1.062,1.873c0,0.82,0.251,1.396,0.754,1.732c0.503,0.335,1.22,0.652,2.152,0.949l3.185,0.951
		c1.043,0.299,1.984,0.661,2.822,1.089c0.839,0.429,1.555,0.96,2.152,1.593c0.596,0.634,1.062,1.416,1.396,2.348
		c0.336,0.932,0.504,2.067,0.504,3.408c0,1.379-0.29,2.664-0.867,3.855c-0.578,1.193-1.416,2.229-2.514,3.104
		c-1.1,0.875-2.432,1.564-3.996,2.066c-1.565,0.504-3.336,0.754-5.311,0.754c-0.894,0-1.713-0.027-2.458-0.082
		c-0.745-0.057-1.462-0.15-2.151-0.28c-0.689-0.132-1.369-0.289-2.04-0.476c-0.671-0.186-1.397-0.428-2.179-0.727
		c0.074-1.006,0.251-2.021,0.53-3.045s0.644-2.021,1.09-2.99c1.229,0.484,2.394,0.848,3.493,1.09
		c1.098,0.242,2.244,0.363,3.437,0.363c0.521,0,1.09-0.047,1.704-0.14c0.615-0.093,1.184-0.261,1.705-0.503s0.958-0.559,1.312-0.95
		s0.531-0.903,0.531-1.536c0-0.895-0.271-1.537-0.811-1.929s-1.295-0.735-2.264-1.034L184.256,51.411z"/>
	<path fill="#FFFFFF" d="M208.734,51.411c-2.087-0.596-3.717-1.48-4.891-2.654c-1.173-1.174-1.76-2.934-1.76-5.281
		c0-2.831,1.015-5.048,3.045-6.65c2.031-1.602,4.797-2.402,8.3-2.402c1.453,0,2.888,0.131,4.304,0.391
		c1.415,0.262,2.85,0.652,4.303,1.174c-0.075,0.969-0.262,1.975-0.559,3.018c-0.299,1.043-0.653,1.957-1.062,2.738
		c-0.894-0.372-1.882-0.699-2.961-0.978c-1.082-0.279-2.217-0.42-3.409-0.42c-1.267,0-2.255,0.196-2.963,0.587
		c-0.708,0.392-1.062,1.016-1.062,1.873c0,0.82,0.252,1.396,0.755,1.732c0.503,0.335,1.22,0.652,2.151,0.949l3.186,0.951
		c1.043,0.299,1.984,0.661,2.822,1.089c0.838,0.429,1.555,0.96,2.151,1.593c0.596,0.634,1.062,1.416,1.397,2.348
		c0.334,0.932,0.503,2.067,0.503,3.408c0,1.379-0.29,2.664-0.866,3.855c-0.578,1.193-1.417,2.229-2.516,3.104
		s-2.431,1.564-3.995,2.066c-1.564,0.504-3.335,0.754-5.31,0.754c-0.894,0-1.714-0.027-2.459-0.082
		c-0.746-0.057-1.463-0.15-2.151-0.28c-0.69-0.132-1.369-0.289-2.04-0.476c-0.67-0.186-1.396-0.428-2.18-0.727
		c0.074-1.006,0.252-2.021,0.531-3.045s0.643-2.021,1.09-2.99c1.229,0.484,2.394,0.848,3.492,1.09
		c1.1,0.242,2.244,0.363,3.438,0.363c0.521,0,1.09-0.047,1.705-0.14c0.614-0.093,1.182-0.261,1.704-0.503
		c0.521-0.242,0.959-0.559,1.313-0.95c0.354-0.392,0.53-0.903,0.53-1.536c0-0.895-0.271-1.537-0.81-1.929
		c-0.541-0.392-1.295-0.735-2.264-1.034L208.734,51.411z"/>
	<path fill="#FFFFFF" d="M267.691,56.386c0.484,1.043,0.885,2.114,1.201,3.213c0.316,1.1,0.55,2.207,0.699,3.325
		c-1.938,0.708-3.68,1.174-5.225,1.397c-1.547,0.223-3.214,0.334-5.002,0.334c-3.168,0-5.943-0.512-8.327-1.536
		c-2.385-1.024-4.388-2.458-6.008-4.303c-1.621-1.845-2.842-4.032-3.661-6.566s-1.229-5.29-1.229-8.271s0.428-5.748,1.285-8.299
		c0.857-2.553,2.096-4.76,3.717-6.623s3.613-3.316,5.979-4.359c2.365-1.043,5.058-1.564,8.075-1.564
		c1.789,0,3.438,0.111,4.945,0.336c1.509,0.223,3.139,0.689,4.891,1.396c-0.075,1.117-0.299,2.207-0.67,3.27
		c-0.373,1.062-0.783,2.133-1.23,3.213c-1.305-0.447-2.459-0.764-3.465-0.949c-1.006-0.188-2.199-0.279-3.576-0.279
		c-3.577,0-6.324,1.164-8.243,3.492s-2.878,5.783-2.878,10.367c0,9.09,3.855,13.635,11.568,13.635c1.377,0,2.588-0.092,3.632-0.279
		C265.213,57.149,266.387,56.833,267.691,56.386z"/>
	<path fill="#FFFFFF" d="M277.247,41.129h-3.743c-0.113-0.484-0.195-0.997-0.252-1.537s-0.084-1.052-0.084-1.537
		c0-1.005,0.111-1.993,0.336-2.962h11.512v28.893c-1.342,0.224-2.646,0.336-3.912,0.336c-1.229,0-2.514-0.112-3.856-0.336V41.129z
		 M276.073,30.231c-0.224-1.267-0.335-2.516-0.335-3.744c0-1.192,0.111-2.439,0.335-3.744c0.634-0.112,1.313-0.196,2.041-0.252
		c0.726-0.057,1.388-0.084,1.983-0.084c0.633,0,1.322,0.027,2.068,0.084c0.744,0.056,1.433,0.14,2.067,0.252
		c0.11,0.633,0.185,1.257,0.224,1.871c0.037,0.615,0.056,1.239,0.056,1.873c0,0.596-0.019,1.211-0.056,1.844
		c-0.039,0.634-0.113,1.268-0.224,1.9c-0.635,0.111-1.313,0.187-2.04,0.223c-0.727,0.038-1.407,0.057-2.039,0.057
		c-0.597,0-1.268-0.019-2.014-0.057C277.396,30.418,276.707,30.343,276.073,30.231z"/>
	<path fill="#FFFFFF" d="M293.621,41.129h-3.632l-0.279-1.118l10.45-13.356h1.285v8.438h6.762c0.112,0.56,0.187,1.062,0.224,1.51
		s0.056,0.913,0.056,1.396c0,0.521-0.019,1.025-0.056,1.509c-0.037,0.485-0.111,1.025-0.224,1.621h-6.762v11.345
		c0,1.154,0.093,2.086,0.279,2.793c0.186,0.709,0.456,1.268,0.811,1.678c0.354,0.41,0.791,0.689,1.312,0.838
		s1.137,0.223,1.845,0.223c0.56,0,1.108-0.045,1.649-0.139c0.539-0.093,1.014-0.176,1.425-0.252c0.26,0.709,0.446,1.445,0.558,2.208
		c0.113,0.765,0.169,1.444,0.169,2.04c0,0.41-0.01,0.754-0.028,1.033s-0.047,0.551-0.084,0.811c-1.714,0.41-3.484,0.615-5.309,0.615
		c-3.391,0-5.98-0.791-7.769-2.376c-1.788-1.583-2.683-4.163-2.683-7.739V41.129z"/>
	<path fill="#FFFFFF" d="M310.89,35.093c0.856-0.186,1.61-0.287,2.263-0.307s1.258-0.027,1.816-0.027
		c0.744,0,1.508,0.019,2.291,0.055c0.783,0.037,1.49,0.131,2.124,0.279l6.035,25.204l6.818-25.204
		c1.229-0.224,2.496-0.334,3.8-0.334c0.56,0,1.154,0.008,1.788,0.027s1.417,0.121,2.348,0.307l-10.786,35.711
		c-0.447,1.416-0.979,2.589-1.592,3.521c-0.615,0.931-1.313,1.657-2.097,2.18c-0.782,0.521-1.657,0.884-2.626,1.09
		c-0.969,0.204-2.013,0.308-3.13,0.308c-1.044,0-1.983-0.066-2.821-0.196c-0.84-0.13-1.668-0.308-2.488-0.53
		c-0.037-0.188-0.055-0.346-0.055-0.476c0-0.131,0-0.271,0-0.419c0-0.895,0.102-1.742,0.307-2.543
		c0.204-0.801,0.456-1.574,0.754-2.318c0.336,0.111,0.783,0.213,1.342,0.307c0.559,0.093,1.117,0.14,1.677,0.14
		c0.447,0,0.894-0.028,1.341-0.084s0.885-0.224,1.313-0.503c0.428-0.279,0.829-0.718,1.202-1.313
		c0.371-0.597,0.707-1.435,1.006-2.515l0.95-3.465c-0.411,0.037-0.867,0.064-1.369,0.084c-0.503,0.018-1.017,0.028-1.538,0.028
		c-0.41,0-0.801,0-1.174,0c-0.372,0-0.707-0.038-1.005-0.112L310.89,35.093z"/>
	<path fill="#FFFFFF" d="M356.826,23.804c1.377-0.223,2.738-0.334,4.079-0.334s2.72,0.111,4.136,0.334v15.76h13.468v-15.76
		c1.378-0.223,2.738-0.334,4.079-0.334c1.342,0,2.72,0.111,4.136,0.334v40.182c-1.416,0.224-2.775,0.336-4.079,0.336
		c-1.379,0-2.758-0.112-4.136-0.336v-17.38h-13.468v17.38c-1.416,0.224-2.776,0.336-4.08,0.336c-1.379,0-2.758-0.112-4.135-0.336
		V23.804z"/>
	<path fill="#FFFFFF" d="M408.965,44.984c0-0.894-0.149-1.62-0.447-2.179c-0.299-0.56-0.707-0.997-1.229-1.314
		c-0.522-0.315-1.166-0.529-1.929-0.643c-0.764-0.111-1.611-0.167-2.542-0.167c-2.012,0-4.155,0.392-6.428,1.174
		c-0.521-0.969-0.912-1.882-1.174-2.738c-0.26-0.856-0.391-1.882-0.391-3.074c1.639-0.559,3.277-0.968,4.918-1.229
		c1.639-0.26,3.166-0.391,4.583-0.391c3.874,0,6.901,0.932,9.081,2.794c2.179,1.863,3.27,4.844,3.27,8.941v16.766
		c-1.305,0.41-2.888,0.802-4.751,1.174s-3.968,0.558-6.314,0.558c-1.9,0-3.643-0.167-5.226-0.502
		c-1.584-0.336-2.943-0.895-4.079-1.677c-1.138-0.782-2.013-1.788-2.627-3.018s-0.922-2.738-0.922-4.526
		c0-1.789,0.382-3.287,1.146-4.5c0.763-1.209,1.751-2.179,2.962-2.905c1.21-0.727,2.561-1.247,4.052-1.564
		c1.49-0.316,2.98-0.476,4.471-0.476c1.08,0,2.271,0.057,3.576,0.168V44.984z M408.965,50.741c-0.447-0.074-0.932-0.141-1.452-0.195
		c-0.522-0.057-0.988-0.085-1.397-0.085c-1.826,0-3.27,0.327-4.331,0.979c-1.062,0.652-1.593,1.704-1.593,3.157
		c0,0.969,0.203,1.714,0.615,2.236c0.408,0.521,0.902,0.902,1.48,1.145c0.576,0.244,1.191,0.392,1.844,0.447
		c0.651,0.056,1.22,0.084,1.705,0.084c0.559,0,1.117-0.047,1.677-0.14c0.558-0.093,1.042-0.177,1.452-0.251V50.741z"/>
	<path fill="#FFFFFF" d="M443.11,57.167c0.446,0.746,0.819,1.612,1.118,2.6c0.297,0.987,0.446,2.15,0.446,3.492
		c-1.49,0.597-2.888,0.979-4.19,1.146c-1.305,0.168-2.664,0.25-4.08,0.25c-2.422,0-4.527-0.381-6.314-1.145
		c-1.789-0.764-3.27-1.816-4.443-3.158c-1.174-1.341-2.059-2.934-2.654-4.777c-0.597-1.845-0.895-3.848-0.895-6.008
		c0-2.124,0.288-4.098,0.866-5.924c0.577-1.825,1.454-3.428,2.627-4.807c1.173-1.377,2.636-2.459,4.386-3.24
		c1.752-0.783,3.782-1.174,6.093-1.174c0.819,0,1.573,0.019,2.263,0.056s1.351,0.112,1.984,0.224c0.633,0.111,1.267,0.261,1.9,0.447
		c0.633,0.187,1.34,0.429,2.123,0.727c0,0.856-0.111,1.816-0.336,2.877c-0.223,1.062-0.577,2.078-1.061,3.047
		c-1.118-0.373-2.096-0.624-2.934-0.756c-0.84-0.129-1.799-0.195-2.879-0.195c-2.311,0-4.052,0.756-5.225,2.264
		c-1.174,1.51-1.761,3.66-1.761,6.455c0,3.018,0.632,5.217,1.899,6.594c1.267,1.379,2.98,2.068,5.142,2.068
		c0.56,0,1.071-0.008,1.536-0.027c0.467-0.02,0.923-0.065,1.369-0.141c0.447-0.074,0.904-0.186,1.369-0.335
		C441.928,57.578,442.477,57.392,443.11,57.167z"/>
	<path fill="#FFFFFF" d="M449.76,23.134c1.267-0.225,2.57-0.335,3.912-0.335c1.341,0,2.662,0.11,3.968,0.335v40.852
		c-1.306,0.224-2.627,0.336-3.968,0.336c-1.342,0-2.646-0.112-3.912-0.336V23.134z M458.758,48.841l7.152-13.748
		c1.454-0.224,2.926-0.334,4.416-0.334c1.415,0,2.794,0.11,4.135,0.334l-7.377,13.357l8.605,15.535
		c-1.527,0.224-2.998,0.336-4.414,0.336c-1.305,0-2.683-0.112-4.135-0.336L458.758,48.841z"/>
	<path fill="#FFFFFF" d="M485.749,51.411c-2.087-0.596-3.716-1.48-4.89-2.654s-1.76-2.934-1.76-5.281
		c0-2.831,1.014-5.048,3.045-6.65c2.03-1.602,4.797-2.402,8.299-2.402c1.453,0,2.888,0.131,4.304,0.391
		c1.415,0.262,2.85,0.652,4.303,1.174c-0.075,0.969-0.262,1.975-0.56,3.018c-0.299,1.043-0.652,1.957-1.062,2.738
		c-0.894-0.372-1.882-0.699-2.961-0.978c-1.082-0.279-2.218-0.42-3.409-0.42c-1.267,0-2.255,0.196-2.962,0.587
		c-0.708,0.392-1.062,1.016-1.062,1.873c0,0.82,0.251,1.396,0.755,1.732c0.503,0.335,1.22,0.652,2.151,0.949l3.186,0.951
		c1.043,0.299,1.983,0.661,2.821,1.089c0.84,0.429,1.556,0.96,2.152,1.593c0.596,0.634,1.062,1.416,1.397,2.348
		c0.335,0.932,0.503,2.067,0.503,3.408c0,1.379-0.29,2.664-0.867,3.855c-0.577,1.193-1.416,2.229-2.515,3.104
		s-2.431,1.564-3.995,2.066c-1.564,0.504-3.335,0.754-5.309,0.754c-0.895,0-1.715-0.027-2.459-0.082
		c-0.746-0.057-1.464-0.15-2.152-0.28c-0.689-0.132-1.369-0.289-2.039-0.476c-0.671-0.186-1.397-0.428-2.18-0.727
		c0.074-1.006,0.251-2.021,0.53-3.045c0.28-1.024,0.643-2.021,1.09-2.99c1.229,0.484,2.394,0.848,3.493,1.09
		c1.098,0.242,2.244,0.363,3.437,0.363c0.521,0,1.089-0.047,1.705-0.14c0.614-0.093,1.182-0.261,1.704-0.503
		c0.521-0.242,0.959-0.559,1.313-0.95c0.354-0.392,0.53-0.903,0.53-1.536c0-0.895-0.271-1.537-0.81-1.929
		c-0.54-0.392-1.295-0.735-2.264-1.034L485.749,51.411z"/>
</g>
<path fill="#FFFFFF" d="M44.341,24.973c-9.432,0-17.57,5.602-17.57,12.677c0,2.998,3.479,5.27,10.878,6.006
	c7.4,0.738,16.245,7.077,16.245,14.457c0,9.199-7.783,16.745-18.517,16.745c-8.845,0-28.655-9.435-28.655-30.544
	c0-21.111,19.517-41.964,46.14-42.11C53.239,2.2,54.16,2.129,54.16,1.435c0-0.942-0.859-1.149-1.298-1.199
	C51.636,0.094,49.946,0,48.086,0C22.288,0,0,21.553,0,45.847C0,72.146,21.346,85,37.384,85c17.101,0,34.909-11.675,34.909-32.077
	S53.777,24.973,44.341,24.973z"/>
</svg>
