<?xml version="1.0" encoding="utf-8"?>
<!-- Generator: Adobe Illustrator 16.0.0, SVG Export Plug-In . SVG Version: 6.00 Build 0)  -->
<!DOCTYPE svg PUBLIC "-//W3C//DTD SVG 1.1//EN" "http://www.w3.org/Graphics/SVG/1.1/DTD/svg11.dtd">
<svg version="1.1" id="Layer_1" xmlns="http://www.w3.org/2000/svg" xmlns:xlink="http://www.w3.org/1999/xlink" x="0px" y="0px"
	 width="500px" height="85px" viewBox="0 0 500 85" enable-background="new 0 0 500 85" xml:space="preserve">
<g>
	<path fill="#4A3D41" d="M116.134,43.14c1.377-0.223,2.719-0.334,4.024-0.334c1.303,0,2.663,0.111,4.079,0.334v19.729
		c-1.938,0.708-3.959,1.182-6.063,1.425c-2.105,0.241-3.939,0.362-5.504,0.362c-3.279,0-6.147-0.512-8.606-1.536
		c-2.458-1.024-4.508-2.458-6.147-4.303c-1.64-1.845-2.87-4.032-3.688-6.566c-0.82-2.534-1.23-5.29-1.23-8.271
		s0.428-5.748,1.286-8.299c0.856-2.553,2.095-4.76,3.716-6.623c1.621-1.863,3.613-3.316,5.98-4.359
		c2.365-1.043,5.058-1.564,8.075-1.564c1.789,0,3.455,0.111,5.002,0.336c1.545,0.223,3.158,0.689,4.834,1.396
		c-0.075,1.117-0.299,2.207-0.671,3.27c-0.373,1.062-0.782,2.133-1.229,3.213c-1.305-0.447-2.459-0.764-3.464-0.949
		c-1.006-0.188-2.199-0.279-3.577-0.279c-3.577,0-6.325,1.164-8.243,3.492c-1.919,2.328-2.877,5.783-2.877,10.367
		c0,4.582,0.95,8,2.85,10.254s4.694,3.381,8.383,3.381c0.633,0,1.201-0.036,1.704-0.111c0.503-0.074,0.959-0.148,1.369-0.224V43.14z
		"/>
	<path fill="#4A3D41" d="M131.168,23.134c1.34-0.225,2.662-0.335,3.967-0.335c1.267,0,2.571,0.11,3.912,0.335v29.34
		c0,1.154,0.064,2.086,0.196,2.793c0.13,0.709,0.335,1.258,0.614,1.649s0.643,0.662,1.09,0.811c0.447,0.149,1.006,0.224,1.676,0.224
		c0.299,0,0.624-0.02,0.979-0.057c0.354-0.037,0.699-0.092,1.033-0.167c0.41,1.528,0.615,3.018,0.615,4.471c0,0.298,0,0.568,0,0.81
		c0,0.244-0.037,0.514-0.111,0.811c-0.597,0.187-1.312,0.316-2.151,0.392c-0.839,0.073-1.612,0.112-2.319,0.112
		c-2.869,0-5.17-0.791-6.902-2.376c-1.732-1.583-2.598-4.163-2.598-7.739V23.134z"/>
	<path fill="#4A3D41" d="M163.915,44.984c0-0.894-0.149-1.62-0.446-2.179c-0.299-0.56-0.709-0.997-1.23-1.314
		c-0.521-0.315-1.164-0.529-1.928-0.643c-0.764-0.111-1.611-0.167-2.543-0.167c-2.012,0-4.154,0.392-6.426,1.174
		c-0.522-0.969-0.914-1.882-1.174-2.738c-0.262-0.856-0.392-1.882-0.392-3.074c1.64-0.559,3.278-0.968,4.918-1.229
		c1.639-0.26,3.167-0.391,4.583-0.391c3.873,0,6.901,0.932,9.08,2.794c2.181,1.863,3.27,4.844,3.27,8.941v16.766
		c-1.305,0.41-2.887,0.802-4.75,1.174s-3.968,0.558-6.314,0.558c-1.9,0-3.643-0.167-5.226-0.502
		c-1.583-0.336-2.944-0.895-4.079-1.677c-1.137-0.782-2.012-1.788-2.627-3.018s-0.922-2.738-0.922-4.526
		c0-1.789,0.381-3.287,1.145-4.5c0.764-1.209,1.752-2.179,2.963-2.905s2.561-1.247,4.052-1.564c1.489-0.316,2.979-0.476,4.47-0.476
		c1.081,0,2.273,0.057,3.577,0.168V44.984z M163.915,50.741c-0.446-0.074-0.932-0.141-1.452-0.195
		c-0.523-0.057-0.988-0.085-1.398-0.085c-1.826,0-3.27,0.327-4.33,0.979c-1.062,0.652-1.593,1.704-1.593,3.157
		c0,0.969,0.204,1.714,0.614,2.236c0.41,0.521,0.903,0.902,1.481,1.145c0.577,0.244,1.192,0.392,1.845,0.447
		c0.65,0.056,1.219,0.084,1.703,0.084c0.56,0,1.117-0.047,1.678-0.14c0.559-0.093,1.042-0.177,1.452-0.251V50.741z"/>
	<path fill="#4A3D41" d="M184.256,51.411c-2.086-0.596-3.716-1.48-4.889-2.654c-1.174-1.174-1.762-2.934-1.762-5.281
		c0-2.831,1.016-5.048,3.047-6.65c2.029-1.602,4.796-2.402,8.299-2.402c1.452,0,2.887,0.131,4.303,0.391
		c1.416,0.262,2.85,0.652,4.303,1.174c-0.074,0.969-0.261,1.975-0.559,3.018c-0.299,1.043-0.652,1.957-1.062,2.738
		c-0.895-0.372-1.882-0.699-2.962-0.978c-1.081-0.279-2.217-0.42-3.409-0.42c-1.267,0-2.255,0.196-2.962,0.587
		c-0.709,0.392-1.062,1.016-1.062,1.873c0,0.82,0.251,1.396,0.754,1.732c0.503,0.335,1.22,0.652,2.152,0.949l3.185,0.951
		c1.043,0.299,1.984,0.661,2.822,1.089c0.839,0.429,1.555,0.96,2.152,1.593c0.596,0.634,1.062,1.416,1.396,2.348
		c0.336,0.932,0.504,2.067,0.504,3.408c0,1.379-0.29,2.664-0.867,3.855c-0.578,1.193-1.416,2.229-2.514,3.104
		c-1.1,0.875-2.432,1.564-3.996,2.066c-1.565,0.504-3.336,0.754-5.311,0.754c-0.894,0-1.713-0.027-2.458-0.082
		c-0.745-0.057-1.462-0.15-2.151-0.28c-0.689-0.132-1.369-0.289-2.04-0.476c-0.671-0.186-1.397-0.428-2.179-0.727
		c0.074-1.006,0.251-2.021,0.53-3.045s0.644-2.021,1.09-2.99c1.229,0.484,2.394,0.848,3.493,1.09
		c1.098,0.242,2.244,0.363,3.437,0.363c0.521,0,1.09-0.047,1.704-0.14c0.615-0.093,1.184-0.261,1.705-0.503s0.958-0.559,1.312-0.95
		s0.531-0.903,0.531-1.536c0-0.895-0.271-1.537-0.811-1.929s-1.295-0.735-2.264-1.034L184.256,51.411z"/>
	<path fill="#4A3D41" d="M208.734,51.411c-2.087-0.596-3.717-1.48-4.891-2.654c-1.173-1.174-1.76-2.934-1.76-5.281
		c0-2.831,1.015-5.048,3.045-6.65c2.031-1.602,4.797-2.402,8.3-2.402c1.453,0,2.888,0.131,4.304,0.391
		c1.415,0.262,2.85,0.652,4.303,1.174c-0.075,0.969-0.262,1.975-0.559,3.018c-0.299,1.043-0.653,1.957-1.062,2.738
		c-0.894-0.372-1.882-0.699-2.961-0.978c-1.082-0.279-2.217-0.42-3.409-0.42c-1.267,0-2.255,0.196-2.963,0.587
		c-0.708,0.392-1.062,1.016-1.062,1.873c0,0.82,0.252,1.396,0.755,1.732c0.503,0.335,1.22,0.652,2.151,0.949l3.186,0.951
		c1.043,0.299,1.984,0.661,2.822,1.089c0.838,0.429,1.555,0.96,2.151,1.593c0.596,0.634,1.062,1.416,1.397,2.348
		c0.334,0.932,0.503,2.067,0.503,3.408c0,1.379-0.29,2.664-0.866,3.855c-0.578,1.193-1.417,2.229-2.516,3.104
		s-2.431,1.564-3.995,2.066c-1.564,0.504-3.335,0.754-5.31,0.754c-0.894,0-1.714-0.027-2.459-0.082
		c-0.746-0.057-1.463-0.15-2.151-0.28c-0.69-0.132-1.369-0.289-2.04-0.476c-0.67-0.186-1.396-0.428-2.18-0.727
		c0.074-1.006,0.252-2.021,0.531-3.045s0.643-2.021,1.09-2.99c1.229,0.484,2.394,0.848,3.492,1.09
		c1.1,0.242,2.244,0.363,3.438,0.363c0.521,0,1.09-0.047,1.705-0.14c0.614-0.093,1.182-0.261,1.704-0.503
		c0.521-0.242,0.959-0.559,1.313-0.95c0.354-0.392,0.53-0.903,0.53-1.536c0-0.895-0.271-1.537-0.81-1.929
		c-0.541-0.392-1.295-0.735-2.264-1.034L208.734,51.411z"/>
	<path fill="#4A3D41" d="M267.691,56.386c0.484,1.043,0.885,2.114,1.201,3.213c0.316,1.1,0.55,2.207,0.699,3.325
		c-1.938,0.708-3.68,1.174-5.225,1.397c-1.547,0.223-3.214,0.334-5.002,0.334c-3.168,0-5.943-0.512-8.327-1.536
		c-2.385-1.024-4.388-2.458-6.008-4.303c-1.621-1.845-2.842-4.032-3.661-6.566s-1.229-5.29-1.229-8.271s0.428-5.748,1.285-8.299
		c0.857-2.553,2.096-4.76,3.717-6.623s3.613-3.316,5.979-4.359c2.365-1.043,5.058-1.564,8.075-1.564
		c1.789,0,3.438,0.111,4.945,0.336c1.509,0.223,3.139,0.689,4.891,1.396c-0.075,1.117-0.299,2.207-0.67,3.27
		c-0.373,1.062-0.783,2.133-1.23,3.213c-1.305-0.447-2.459-0.764-3.465-0.949c-1.006-0.188-2.199-0.279-3.576-0.279
		c-3.577,0-6.324,1.164-8.243,3.492s-2.878,5.783-2.878,10.367c0,9.09,3.855,13.635,11.568,13.635c1.377,0,2.588-0.092,3.632-0.279
		C265.213,57.149,266.387,56.833,267.691,56.386z"/>
	<path fill="#4A3D41" d="M277.247,41.129h-3.743c-0.113-0.484-0.195-0.997-0.252-1.537s-0.084-1.052-0.084-1.537
		c0-1.005,0.111-1.993,0.336-2.962h11.512v28.893c-1.342,0.224-2.646,0.336-3.912,0.336c-1.229,0-2.514-0.112-3.856-0.336V41.129z
		 M276.073,30.231c-0.224-1.267-0.335-2.516-0.335-3.744c0-1.192,0.111-2.439,0.335-3.744c0.634-0.112,1.313-0.196,2.041-0.252
		c0.726-0.057,1.388-0.084,1.983-0.084c0.633,0,1.322,0.027,2.068,0.084c0.744,0.056,1.433,0.14,2.067,0.252
		c0.11,0.633,0.185,1.257,0.224,1.871c0.037,0.615,0.056,1.239,0.056,1.873c0,0.596-0.019,1.211-0.056,1.844
		c-0.039,0.634-0.113,1.268-0.224,1.9c-0.635,0.111-1.313,0.187-2.04,0.223c-0.727,0.038-1.407,0.057-2.039,0.057
		c-0.597,0-1.268-0.019-2.014-0.057C277.396,30.418,276.707,30.343,276.073,30.231z"/>
	<path fill="#4A3D41" d="M293.621,41.129h-3.632l-0.279-1.118l10.45-13.356h1.285v8.438h6.762c0.112,0.56,0.187,1.062,0.224,1.51
		s0.056,0.913,0.056,1.396c0,0.521-0.019,1.025-0.056,1.509c-0.037,0.485-0.111,1.025-0.224,1.621h-6.762v11.345
		c0,1.154,0.093,2.086,0.279,2.793c0.186,0.709,0.456,1.268,0.811,1.678c0.354,0.41,0.791,0.689,1.312,0.838
		s1.137,0.223,1.845,0.223c0.56,0,1.108-0.045,1.649-0.139c0.539-0.093,1.014-0.176,1.425-0.252c0.26,0.709,0.446,1.445,0.558,2.208
		c0.113,0.765,0.169,1.444,0.169,2.04c0,0.41-0.01,0.754-0.028,1.033s-0.047,0.551-0.084,0.811c-1.714,0.41-3.484,0.615-5.309,0.615
		c-3.391,0-5.98-0.791-7.769-2.376c-1.788-1.583-2.683-4.163-2.683-7.739V41.129z"/>
	<path fill="#4A3D41" d="M310.89,35.093c0.856-0.186,1.61-0.287,2.263-0.307s1.258-0.027,1.816-0.027
		c0.744,0,1.508,0.019,2.291,0.055c0.783,0.037,1.49,0.131,2.124,0.279l6.035,25.204l6.818-25.204
		c1.229-0.224,2.496-0.334,3.8-0.334c0.56,0,1.154,0.008,1.788,0.027s1.417,0.121,2.348,0.307l-10.786,35.711
		c-0.447,1.416-0.979,2.589-1.592,3.521c-0.615,0.931-1.313,1.657-2.097,2.18c-0.782,0.521-1.657,0.884-2.626,1.09
		c-0.969,0.204-2.013,0.308-3.13,0.308c-1.044,0-1.983-0.066-2.821-0.196c-0.84-0.13-1.668-0.308-2.488-0.53
		c-0.037-0.188-0.055-0.346-0.055-0.476c0-0.131,0-0.271,0-0.419c0-0.895,0.102-1.742,0.307-2.543
		c0.204-0.801,0.456-1.574,0.754-2.318c0.336,0.111,0.783,0.213,1.342,0.307c0.559,0.093,1.117,0.14,1.677,0.14
		c0.447,0,0.894-0.028,1.341-0.084s0.885-0.224,1.313-0.503c0.428-0.279,0.829-0.718,1.202-1.313
		c0.371-0.597,0.707-1.435,1.006-2.515l0.95-3.465c-0.411,0.037-0.867,0.064-1.369,0.084c-0.503,0.018-1.017,0.028-1.538,0.028
		c-0.41,0-0.801,0-1.174,0c-0.372,0-0.707-0.038-1.005-0.112L310.89,35.093z"/>
	<path fill="#4A3D41" d="M356.826,23.804c1.377-0.223,2.738-0.334,4.079-0.334s2.72,0.111,4.136,0.334v15.76h13.468v-15.76
		c1.378-0.223,2.738-0.334,4.079-0.334c1.342,0,2.72,0.111,4.136,0.334v40.182c-1.416,0.224-2.775,0.336-4.079,0.336
		c-1.379,0-2.758-0.112-4.136-0.336v-17.38h-13.468v17.38c-1.416,0.224-2.776,0.336-4.08,0.336c-1.379,0-2.758-0.112-4.135-0.336
		V23.804z"/>
	<path fill="#4A3D41" d="M408.965,44.984c0-0.894-0.149-1.62-0.447-2.179c-0.299-0.56-0.707-0.997-1.229-1.314
		c-0.522-0.315-1.166-0.529-1.929-0.643c-0.764-0.111-1.611-0.167-2.542-0.167c-2.012,0-4.155,0.392-6.428,1.174
		c-0.521-0.969-0.912-1.882-1.174-2.738c-0.26-0.856-0.391-1.882-0.391-3.074c1.639-0.559,3.277-0.968,4.918-1.229
		c1.639-0.26,3.166-0.391,4.583-0.391c3.874,0,6.901,0.932,9.081,2.794c2.179,1.863,3.27,4.844,3.27,8.941v16.766
		c-1.305,0.41-2.888,0.802-4.751,1.174s-3.968,0.558-6.314,0.558c-1.9,0-3.643-0.167-5.226-0.502
		c-1.584-0.336-2.943-0.895-4.079-1.677c-1.138-0.782-2.013-1.788-2.627-3.018s-0.922-2.738-0.922-4.526
		c0-1.789,0.382-3.287,1.146-4.5c0.763-1.209,1.751-2.179,2.962-2.905c1.21-0.727,2.561-1.247,4.052-1.564
		c1.49-0.316,2.98-0.476,4.471-0.476c1.08,0,2.271,0.057,3.576,0.168V44.984z M408.965,50.741c-0.447-0.074-0.932-0.141-1.452-0.195
		c-0.522-0.057-0.988-0.085-1.397-0.085c-1.826,0-3.27,0.327-4.331,0.979c-1.062,0.652-1.593,1.704-1.593,3.157
		c0,0.969,0.203,1.714,0.615,2.236c0.408,0.521,0.902,0.902,1.48,1.145c0.576,0.244,1.191,0.392,1.844,0.447
		c0.651,0.056,1.22,0.084,1.705,0.084c0.559,0,1.117-0.047,1.677-0.14c0.558-0.093,1.042-0.177,1.452-0.251V50.741z"/>
	<path fill="#4A3D41" d="M443.11,57.167c0.446,0.746,0.819,1.612,1.118,2.6c0.297,0.987,0.446,2.15,0.446,3.492
		c-1.49,0.597-2.888,0.979-4.19,1.146c-1.305,0.168-2.664,0.25-4.08,0.25c-2.422,0-4.527-0.381-6.314-1.145
		c-1.789-0.764-3.27-1.816-4.443-3.158c-1.174-1.341-2.059-2.934-2.654-4.777c-0.597-1.845-0.895-3.848-0.895-6.008
		c0-2.124,0.288-4.098,0.866-5.924c0.577-1.825,1.454-3.428,2.627-4.807c1.173-1.377,2.636-2.459,4.386-3.24
		c1.752-0.783,3.782-1.174,6.093-1.174c0.819,0,1.573,0.019,2.263,0.056s1.351,0.112,1.984,0.224c0.633,0.111,1.267,0.261,1.9,0.447
		c0.633,0.187,1.34,0.429,2.123,0.727c0,0.856-0.111,1.816-0.336,2.877c-0.223,1.062-0.577,2.078-1.061,3.047
		c-1.118-0.373-2.096-0.624-2.934-0.756c-0.84-0.129-1.799-0.195-2.879-0.195c-2.311,0-4.052,0.756-5.225,2.264
		c-1.174,1.51-1.761,3.66-1.761,6.455c0,3.018,0.632,5.217,1.899,6.594c1.267,1.379,2.98,2.068,5.142,2.068
		c0.56,0,1.071-0.008,1.536-0.027c0.467-0.02,0.923-0.065,1.369-0.141c0.447-0.074,0.904-0.186,1.369-0.335
		C441.928,57.578,442.477,57.392,443.11,57.167z"/>
	<path fill="#4A3D41" d="M449.76,23.134c1.267-0.225,2.57-0.335,3.912-0.335c1.341,0,2.662,0.11,3.968,0.335v40.852
		c-1.306,0.224-2.627,0.336-3.968,0.336c-1.342,0-2.646-0.112-3.912-0.336V23.134z M458.758,48.841l7.152-13.748
		c1.454-0.224,2.926-0.334,4.416-0.334c1.415,0,2.794,0.11,4.135,0.334l-7.377,13.357l8.605,15.535
		c-1.527,0.224-2.998,0.336-4.414,0.336c-1.305,0-2.683-0.112-4.135-0.336L458.758,48.841z"/>
	<path fill="#4A3D41" d="M485.749,51.411c-2.087-0.596-3.716-1.48-4.89-2.654s-1.76-2.934-1.76-5.281
		c0-2.831,1.014-5.048,3.045-6.65c2.03-1.602,4.797-2.402,8.299-2.402c1.453,0,2.888,0.131,4.304,0.391
		c1.415,0.262,2.85,0.652,4.303,1.174c-0.075,0.969-0.262,1.975-0.56,3.018c-0.299,1.043-0.652,1.957-1.062,2.738
		c-0.894-0.372-1.882-0.699-2.961-0.978c-1.082-0.279-2.218-0.42-3.409-0.42c-1.267,0-2.255,0.196-2.962,0.587
		c-0.708,0.392-1.062,1.016-1.062,1.873c0,0.82,0.251,1.396,0.755,1.732c0.503,0.335,1.22,0.652,2.151,0.949l3.186,0.951
		c1.043,0.299,1.983,0.661,2.821,1.089c0.84,0.429,1.556,0.96,2.152,1.593c0.596,0.634,1.062,1.416,1.397,2.348
		c0.335,0.932,0.503,2.067,0.503,3.408c0,1.379-0.29,2.664-0.867,3.855c-0.577,1.193-1.416,2.229-2.515,3.104
		s-2.431,1.564-3.995,2.066c-1.564,0.504-3.335,0.754-5.309,0.754c-0.895,0-1.715-0.027-2.459-0.082
		c-0.746-0.057-1.464-0.15-2.152-0.28c-0.689-0.132-1.369-0.289-2.039-0.476c-0.671-0.186-1.397-0.428-2.18-0.727
		c0.074-1.006,0.251-2.021,0.53-3.045c0.28-1.024,0.643-2.021,1.09-2.99c1.229,0.484,2.394,0.848,3.493,1.09
		c1.098,0.242,2.244,0.363,3.437,0.363c0.521,0,1.089-0.047,1.705-0.14c0.614-0.093,1.182-0.261,1.704-0.503
		c0.521-0.242,0.959-0.559,1.313-0.95c0.354-0.392,0.53-0.903,0.53-1.536c0-0.895-0.271-1.537-0.81-1.929
		c-0.54-0.392-1.295-0.735-2.264-1.034L485.749,51.411z"/>
</g>
<g>
	<path fill="#EC8035" d="M44.341,24.973c-9.432,0-17.57,5.602-17.57,12.677c0,2.998,3.479,5.27,10.878,6.006
		c7.4,0.738,16.245,7.077,16.245,14.457c0,9.199-7.783,16.745-18.517,16.745c-8.845,0-28.655-9.435-28.655-30.544
		c0-21.111,19.517-41.964,46.14-42.11C53.239,2.2,54.16,2.129,54.16,1.435c0-0.942-0.859-1.149-1.298-1.199
		C51.636,0.094,49.946,0,48.086,0C22.288,0,0,21.553,0,45.847C0,72.146,21.346,85,37.384,85c17.101,0,34.909-11.675,34.909-32.077
		S53.777,24.973,44.341,24.973z"/>
	<g>
		<path fill="#E96B31" d="M67.862,37.625c-0.466-0.692-0.96-1.354-1.48-1.983l-0.979,1.504L67.862,37.625z"/>
		<path fill="#F6873E" d="M72.265,54.272c0.015-0.446,0.028-0.895,0.028-1.35c0-1.746-0.139-3.395-0.393-4.957l-6.942,4.648
			L72.265,54.272z"/>
		<path fill="#D9594C" d="M66.382,35.642c-0.605-0.737-1.248-1.432-1.915-2.087l0.936,3.591L66.382,35.642z"/>
		<path fill="#E96B31" d="M65.403,37.146l-0.445,15.469l6.942-4.648c-0.654-4.033-2.101-7.461-4.038-10.341L65.403,37.146z"/>
		<path fill="#F36F36" d="M69.216,66.598c1.122-2.288,1.971-4.773,2.49-7.448l-9.278,5.213L69.216,66.598z"/>
		<path fill="#E96B31" d="M62.428,64.362l9.278-5.213c0.303-1.561,0.491-3.188,0.559-4.877l-7.307-1.658L62.428,64.362z"/>
		<path fill="#EC8035" d="M67.306,69.913c0.702-1.055,1.341-2.158,1.91-3.315l-6.788-2.235L67.306,69.913z"/>
		<path fill="#C54563" d="M65.403,37.146l-0.936-3.591c-0.961-0.942-1.98-1.797-3.034-2.572l-0.191,3.636L65.403,37.146z"/>
		<path fill="#E96B31" d="M53.805,75.515l8.777-0.07c1.774-1.645,3.368-3.491,4.724-5.531l-4.878-5.551L53.805,75.515z"/>
		<path fill="#F26734" d="M56.459,79.938c2.199-1.271,4.263-2.771,6.123-4.494l-8.777,0.07L56.459,79.938z"/>
		<polygon fill="#DD5C49" points="64.958,52.614 65.403,37.146 53.805,50.531 		"/>
		<path fill="#D9594C" d="M61.242,34.618l0.191-3.636c-1.542-1.136-3.158-2.095-4.79-2.892l-1.649,1.472L61.242,34.618z"/>
		<path fill="#F7941E" d="M54.16,1.435c0-0.15-0.025-0.278-0.062-0.393l-0.695,1.106C53.777,2.072,54.16,1.883,54.16,1.435z"/>
		<path fill="#EC8035" d="M64.958,52.614l-11.07,5.354c0.003,0.05,0.007,0.096,0.007,0.145c0,0.799-0.062,1.583-0.176,2.352
			l8.709,3.898L64.958,52.614z"/>
		<path fill="#E96B31" d="M53.805,50.531l-0.968,3.161c0.652,1.357,1.029,2.796,1.05,4.275l11.07-5.354L53.805,50.531z"/>
		<polygon fill="#E96B31" points="53.805,50.531 65.403,37.146 61.242,34.618 		"/>
		<path fill="#D9594C" d="M46.782,25.123c-0.832-0.098-1.622-0.146-2.357-0.15l-0.139,0.425L46.782,25.123z"/>
		<path fill="#EA7735" d="M62.428,64.362l-8.709-3.898c-0.256,1.741-0.797,3.4-1.585,4.93l1.672,10.121L62.428,64.362z"/>
		<polygon fill="#D9594C" points="54.994,29.562 53.805,50.531 61.242,34.618 		"/>
		<path fill="#C54563" d="M54.994,29.562l1.649-1.472c-3.423-1.672-6.905-2.623-9.861-2.968l-2.497,0.274L54.994,29.562z"/>
		<polygon fill="#B42C7D" points="40.121,38.485 53.805,50.531 54.994,29.562 		"/>
		<path fill="#F36F36" d="M49.566,83.021c2.397-0.796,4.711-1.826,6.893-3.082l-2.654-4.424L49.566,83.021z"/>
		<path fill="#F57F3B" d="M52.133,65.394c-1.573,3.045-4.122,5.577-7.363,7.254l9.035,2.867L52.133,65.394z"/>
		<path fill="#F7941E" d="M52.862,2.203c0.133-0.001,0.337-0.011,0.541-0.054l0.695-1.106c-0.201-0.61-0.865-0.765-1.236-0.807
			c-0.581-0.066-1.267-0.123-2.021-0.163l-0.146,2.19C51.413,2.229,52.133,2.206,52.862,2.203z"/>
		<path fill="#B42C7D" d="M44.425,24.973c-0.028,0-0.055,0-0.083,0c-0.031,0-0.062,0.001-0.092,0.001l0.037,0.424L44.425,24.973z"/>
		<path fill="#F6883F" d="M50.696,2.263l0.146-2.19C49.998,0.026,49.068,0,48.086,0c-2.58,0-5.122,0.219-7.612,0.632l3.72,2.374
			C46.303,2.621,48.472,2.371,50.696,2.263z"/>
		<path fill="#EA7735" d="M44.193,3.006l-3.72-2.374c-0.9,0.148-1.79,0.321-2.67,0.521l2.076,2.844
			C41.286,3.604,42.725,3.273,44.193,3.006z"/>
		<path fill="#E96B31" d="M44.771,72.647c-0.098,0.053-0.197,0.107-0.3,0.157l1.601,11.198c1.18-0.272,2.345-0.602,3.495-0.982
			l4.239-7.506L44.771,72.647z"/>
		<polygon fill="#D9594C" points="44.286,25.397 40.121,38.485 54.994,29.562 		"/>
		<path fill="#F5823B" d="M52.213,52.541c0.229,0.378,0.439,0.761,0.624,1.151l0.968-3.161L52.213,52.541z"/>
		<path fill="#F6873E" d="M50.916,50.738c0.481,0.578,0.917,1.181,1.297,1.803l1.592-2.01L50.916,50.738z"/>
		<path fill="#D9594C" d="M40.121,38.485l-1.143,5.359c4.366,0.805,9.012,3.397,11.938,6.894l2.889-0.207L40.121,38.485z"/>
		<path fill="#C54563" d="M44.249,24.974c-0.288,0.002-0.575,0.009-0.86,0.02l0.896,0.404L44.249,24.974z"/>
		<path fill="#E96B31" d="M36.528,74.826l-12.17,3.515l1.696,4.698c2.627,0.894,5.268,1.481,7.83,1.764l10.146-11.791
			C41.799,74.044,39.268,74.687,36.528,74.826z"/>
		<path fill="#F57F3B" d="M44.029,73.012L33.883,84.803c1.186,0.13,2.357,0.197,3.5,0.197c2.907,0,5.833-0.337,8.688-0.997
			l-1.601-11.198C44.326,72.877,44.178,72.944,44.029,73.012z"/>
		<path fill="#F15B22" d="M44.286,25.397l-2.558-0.281c-4.681,0.521-8.845,2.412-11.586,5.117l9.979,8.252L44.286,25.397z"/>
		<path fill="#F36F36" d="M36.528,74.826c-0.38,0.019-0.763,0.031-1.15,0.031c-2.338,0-5.45-0.661-8.758-2.024l-2.262,5.508
			L36.528,74.826z"/>
		<path fill="#C54563" d="M43.389,24.993c-0.559,0.021-1.114,0.063-1.662,0.123l2.558,0.281L43.389,24.993z"/>
		<path fill="#D9594C" d="M30.142,30.233c-1.579,1.555-2.682,3.38-3.136,5.368l13.115,2.884L30.142,30.233z"/>
		<path fill="#F7941E" d="M39.88,3.997l-2.076-2.844c-2.166,0.486-4.285,1.123-6.343,1.895l-3.25,5.949
			C31.77,6.871,35.678,5.166,39.88,3.997z"/>
		<path fill="#C54563" d="M30.574,42.065c1.74,0.745,4.088,1.293,7.076,1.59c0.439,0.045,0.88,0.108,1.329,0.189l1.143-5.359
			L30.574,42.065z"/>
		<path fill="#F6883F" d="M28.211,8.997l3.25-5.949c-1.264,0.475-2.506,0.998-3.723,1.571l-1.746,5.79
			C26.715,9.921,27.454,9.45,28.211,8.997z"/>
		<path fill="#C54563" d="M27.006,35.602c-0.152,0.665-0.235,1.35-0.235,2.048c0,1.787,1.236,3.316,3.803,4.416l9.547-3.58
			L27.006,35.602z"/>
		<path fill="#F7941E" d="M25.992,10.409l1.746-5.79c-1.81,0.854-3.565,1.812-5.252,2.87l0.933,4.789
			C24.252,11.63,25.108,11.005,25.992,10.409z"/>
		<path fill="#EC8035" d="M24.358,78.341l2.262-5.508c-5.172-2.133-10.826-5.985-14.78-11.715l-2.8,0.27L24.358,78.341z"/>
		<path fill="#F68E41" d="M11.839,61.118c-0.152-0.219-0.303-0.441-0.448-0.668L9.04,61.388L11.839,61.118z"/>
		<path fill="#F79445" d="M11.391,60.45c-0.633-0.971-1.217-1.994-1.74-3.069L9.04,61.388L11.391,60.45z"/>
		<path fill="#EA7735" d="M23.418,12.278l-0.933-4.789c-2.9,1.819-5.604,3.926-8.057,6.268l5.57,1.463
			C21.083,14.19,22.223,13.21,23.418,12.278z"/>
		<path fill="#F36F36" d="M20.966,80.899c1.671,0.843,3.376,1.557,5.088,2.14l-1.696-4.698L20.966,80.899z"/>
		<path fill="#F36F36" d="M9.04,61.388l-2.499,6.92c1.458,2.152,3.108,4.094,4.896,5.827l12.921,4.206L9.04,61.388z"/>
		<path fill="#F57F3B" d="M19.999,15.22l-5.57-1.463c-0.39,0.371-0.77,0.75-1.146,1.133l4.322,2.77
			C18.367,16.821,19.168,16.007,19.999,15.22z"/>
		<path fill="#EA7735" d="M11.437,74.135c2.889,2.798,6.14,5.05,9.529,6.765l3.392-2.559L11.437,74.135z"/>
		<path fill="#EA7735" d="M13.118,23.493l-6.909,0.531c-0.661,1.107-1.278,2.24-1.844,3.395l5.41,2.361
			C10.699,27.616,11.817,25.513,13.118,23.493z"/>
		<path fill="#F6883F" d="M16.105,19.399l-8.536,2.48c-0.473,0.705-0.927,1.418-1.36,2.145l6.909-0.531
			C14.027,22.083,15.024,20.716,16.105,19.399z"/>
		<path fill="#F7941E" d="M17.604,17.659l-4.322-2.77c-2.123,2.162-4.039,4.504-5.713,6.99l8.536-2.48
			C16.591,18.81,17.088,18.229,17.604,17.659z"/>
		<path fill="#F6883F" d="M7.514,36.909c0.516-2.422,1.273-4.811,2.262-7.129l-5.41-2.361c-1.304,2.668-2.342,5.454-3.077,8.324
			l0.763,2.592L7.514,36.909z"/>
		<path fill="#E96B31" d="M6.794,42.102c0.114-1.741,0.355-3.474,0.72-5.192l-5.462,1.426L6.794,42.102z"/>
		<path fill="#F6883F" d="M9.04,61.388l0.612-4.007c-1.257-2.571-2.175-5.442-2.62-8.623L0.71,53.06L9.04,61.388z"/>
		<path fill="#EA7735" d="M0.71,53.06l1.205,5.665c0.146,0.458,0.297,0.912,0.458,1.358l6.667,1.305L0.71,53.06z"/>
		<path fill="#F6883F" d="M0.71,53.06l6.322-4.302c-0.201-1.419-0.309-2.899-0.309-4.444c0-0.738,0.025-1.475,0.071-2.212
			l-4.743-3.767L0.71,53.06z"/>
		<path fill="#F79045" d="M2.373,60.083c1.084,3.02,2.5,5.76,4.168,8.225l2.499-6.92L2.373,60.083z"/>
		<path fill="#F7941E" d="M2.051,38.335l-1.73,2.488C0.111,42.479,0,44.156,0,45.847c0,2.51,0.194,4.895,0.562,7.16L0.71,53.06
			L2.051,38.335z"/>
		<path fill="#EA7735" d="M1.288,35.743c-0.133,0.515-0.25,1.033-0.365,1.555l1.128,1.037L1.288,35.743z"/>
		<path fill="#EA7735" d="M0.735,38.224c-0.167,0.859-0.303,1.728-0.414,2.6l1.73-2.488L0.735,38.224z"/>
		<path fill="#EA7735" d="M0.923,37.298c-0.065,0.307-0.129,0.615-0.188,0.926l1.316,0.111L0.923,37.298z"/>
		<path fill="#F6883F" d="M0.562,53.007c0.321,2,0.779,3.906,1.353,5.718L0.71,53.06L0.562,53.007z"/>
	</g>
</g>
</svg>
