<?xml version="1.0" encoding="utf-8"?>
<!-- Generator: Adobe Illustrator 16.0.0, SVG Export Plug-In . SVG Version: 6.00 Build 0)  -->
<!DOCTYPE svg PUBLIC "-//W3C//DTD SVG 1.1//EN" "http://www.w3.org/Graphics/SVG/1.1/DTD/svg11.dtd">
<svg version="1.1" id="Layer_1" xmlns="http://www.w3.org/2000/svg" xmlns:xlink="http://www.w3.org/1999/xlink" x="0px" y="0px"
	 width="1100px" height="1100px" viewBox="0 0 1100 1100" enable-background="new 0 0 1100 1100" xml:space="preserve">
<linearGradient id="SVGID_1_" gradientUnits="userSpaceOnUse" x1="129.2271" y1="881.7725" x2="482.7716" y2="528.2279" gradientTransform="matrix(1 0 0 -1 244 1255)">
	<stop  offset="0" style="stop-color:#E96B31"/>
	<stop  offset="1" style="stop-color:#AF2277"/>
</linearGradient>
<path fill="url(#SVGID_1_)" d="M538,307.305v485.391c-29.752-1.438-58.56-8.209-85.738-20.162
	c-28.391-12.486-53.853-30.089-75.678-52.318C331.712,674.51,307,614.061,307,550c0-64.06,24.712-124.51,69.584-170.214
	c21.825-22.23,47.287-39.833,75.678-52.319C479.44,315.514,508.248,308.743,538,307.305 M545,300.063
	C409.238,302.729,300,413.601,300,550s109.238,247.271,245,249.938V300.063L545,300.063z M562,307.305
	c29.752,1.438,58.56,8.209,85.737,20.162c28.392,12.486,53.854,30.089,75.679,52.319C768.288,425.49,793,485.94,793,550
	c0,64.061-24.712,124.51-69.584,170.215c-21.825,22.229-47.287,39.832-75.679,52.318c-27.179,11.953-55.985,18.724-85.737,20.162
	V307.305 M555,300.063v499.873C690.762,797.271,800,686.399,800,550S690.762,302.729,555,300.063L555,300.063z"/>
<g>
	<path fill="#AAAAAA" d="M149.281,500.38h21.479c0.24,1.2,0.36,2.4,0.36,3.601c0,1.28-0.12,2.52-0.36,3.72h-13.8l-0.36,8.58
		c0.72-0.159,1.359-0.271,1.92-0.33c0.56-0.061,1.14-0.09,1.74-0.09c1.959,0,3.74,0.27,5.34,0.81s2.97,1.341,4.11,2.4
		c1.14,1.061,2.029,2.37,2.67,3.93c0.639,1.56,0.96,3.36,0.96,5.4c0,2.48-0.43,4.66-1.29,6.54c-0.861,1.881-2.081,3.46-3.66,4.739
		c-1.581,1.279-3.5,2.24-5.76,2.88c-2.26,0.64-4.791,0.96-7.59,0.96c-0.52,0-1.17-0.029-1.95-0.09c-0.78-0.06-1.62-0.161-2.52-0.3
		c-0.9-0.141-1.851-0.33-2.85-0.57c-1-0.239-1.96-0.521-2.88-0.84c0.12-1.241,0.379-2.46,0.78-3.66
		c0.399-1.199,0.84-2.379,1.32-3.54c1.399,0.48,2.72,0.861,3.96,1.141c1.239,0.28,2.559,0.42,3.96,0.42c1.8,0,3.3-0.2,4.5-0.6
		c1.2-0.399,2.18-0.931,2.94-1.591c0.759-0.659,1.299-1.419,1.62-2.279c0.319-0.859,0.48-1.749,0.48-2.67
		c0-2.04-0.66-3.62-1.98-4.74c-1.32-1.12-3.46-1.681-6.42-1.681c-1.161,0-2.291,0.111-3.39,0.33c-1.101,0.221-2.211,0.61-3.33,1.17
		l-0.9-0.72L149.281,500.38z"/>
	<path fill="#AAAAAA" d="M195.841,540.22c-2.68,0-5-0.501-6.96-1.5c-1.96-1-3.57-2.399-4.83-4.2c-1.26-1.8-2.2-3.93-2.82-6.39
		c-0.621-2.46-0.93-5.149-0.93-8.07c0-2.919,0.32-5.62,0.96-8.1c0.639-2.479,1.6-4.62,2.88-6.42c1.28-1.8,2.91-3.21,4.89-4.23
		c1.979-1.02,4.33-1.529,7.05-1.529c2.68,0,5,0.51,6.96,1.529c1.959,1.021,3.58,2.431,4.86,4.23c1.28,1.8,2.22,3.939,2.82,6.42
		c0.6,2.479,0.9,5.181,0.9,8.1c0,2.92-0.32,5.61-0.96,8.07c-0.64,2.46-1.6,4.59-2.88,6.39c-1.281,1.801-2.92,3.201-4.92,4.2
		C200.86,539.719,198.52,540.22,195.841,540.22z M195.961,533.02c2.04,0,3.63-1.05,4.77-3.149c1.14-2.101,1.71-5.37,1.71-9.811
		c0-4.439-0.57-7.71-1.71-9.81s-2.73-3.15-4.77-3.15c-2.081,0-3.711,1.051-4.89,3.15c-1.18,2.1-1.77,5.37-1.77,9.81
		c0,4.44,0.6,7.71,1.8,9.811C192.301,531.97,193.921,533.02,195.961,533.02z"/>
	<path fill="#AAAAAA" d="M223.5,527.74c-1.334,0-2.487-0.24-3.46-0.721c-0.974-0.479-1.773-1.112-2.4-1.899
		c-0.627-0.786-1.094-1.688-1.4-2.7c-0.307-1.013-0.46-2.066-0.46-3.16c0-1.093,0.153-2.152,0.46-3.18
		c0.306-1.026,0.773-1.933,1.4-2.72c0.626-0.786,1.426-1.42,2.4-1.9c0.973-0.479,2.126-0.72,3.46-0.72c1.306,0,2.446,0.24,3.42,0.72
		c0.973,0.48,1.78,1.114,2.42,1.9c0.64,0.787,1.113,1.693,1.42,2.72c0.306,1.027,0.46,2.087,0.46,3.18
		c0,1.094-0.154,2.147-0.46,3.16c-0.307,1.014-0.78,1.914-1.42,2.7c-0.64,0.787-1.447,1.42-2.42,1.899
		C225.946,527.5,224.807,527.74,223.5,527.74z M223.5,523.94c0.96,0,1.666-0.427,2.12-1.28c0.453-0.854,0.68-1.986,0.68-3.4
		c0-1.439-0.227-2.58-0.68-3.42c-0.454-0.84-1.16-1.26-2.12-1.26s-1.667,0.42-2.12,1.26c-0.454,0.84-0.68,1.98-0.68,3.42
		c0,1.414,0.227,2.547,0.68,3.4S222.54,523.94,223.5,523.94z M241.86,511.14c0.906-0.159,1.84-0.239,2.8-0.239
		c0.826,0,1.747,0.08,2.76,0.239l-19.36,28.28c-0.934,0.16-1.827,0.24-2.68,0.24c-0.907,0-1.854-0.08-2.84-0.24L241.86,511.14z
		 M246.42,539.98c-1.334,0-2.487-0.24-3.46-0.721c-0.974-0.479-1.774-1.112-2.4-1.899c-0.626-0.786-1.094-1.687-1.4-2.7
		c-0.307-1.014-0.46-2.066-0.46-3.16c0-1.093,0.153-2.153,0.46-3.18c0.306-1.026,0.773-1.934,1.4-2.721
		c0.626-0.785,1.426-1.42,2.4-1.899c0.973-0.48,2.126-0.72,3.46-0.72c1.306,0,2.446,0.239,3.42,0.72
		c0.973,0.479,1.78,1.114,2.42,1.899c0.64,0.787,1.113,1.694,1.42,2.721c0.306,1.026,0.46,2.087,0.46,3.18
		c0,1.094-0.154,2.146-0.46,3.16c-0.307,1.014-0.78,1.914-1.42,2.7c-0.64,0.786-1.447,1.42-2.42,1.899
		C248.867,539.74,247.727,539.98,246.42,539.98z M246.42,536.18c0.96,0,1.666-0.426,2.12-1.279c0.453-0.854,0.68-1.986,0.68-3.4
		c0-1.44-0.227-2.58-0.68-3.42c-0.454-0.84-1.16-1.26-2.12-1.26s-1.667,0.42-2.12,1.26c-0.454,0.84-0.68,1.979-0.68,3.42
		c0,1.414,0.227,2.547,0.68,3.4C244.753,535.754,245.46,536.18,246.42,536.18z"/>
	<path fill="#AAAAAA" d="M148.261,556.359c0.48-0.079,1.029-0.14,1.65-0.181c0.62-0.039,1.209-0.06,1.77-0.06
		c0.56,0,1.17,0.021,1.83,0.06c0.66,0.041,1.209,0.102,1.65,0.181l11.16,27l11.22-27c0.399-0.079,0.9-0.14,1.5-0.181
		c0.6-0.039,1.18-0.06,1.74-0.06c0.52,0,1.1,0.021,1.74,0.06c0.639,0.041,1.179,0.102,1.62,0.181l2.04,43.141
		c-0.48,0.08-0.97,0.14-1.47,0.18c-0.501,0.039-1.011,0.062-1.53,0.062c-0.52,0-1.03-0.021-1.53-0.062
		c-0.501-0.04-0.97-0.1-1.41-0.18l-1.38-33.54l-10.56,24.601c-0.801,0.119-1.62,0.181-2.46,0.181c-0.76,0-1.521-0.062-2.28-0.181
		l-10.2-24.78l-1.38,33.721c-0.441,0.08-0.9,0.14-1.38,0.18c-0.48,0.039-0.94,0.062-1.38,0.062c-0.52,0-1.02-0.021-1.5-0.062
		s-0.94-0.1-1.38-0.18L148.261,556.359z"/>
	<path fill="#AAAAAA" d="M211.801,579.221c0-2.359-0.6-4-1.8-4.921c-1.2-0.919-2.94-1.38-5.22-1.38c-1.401,0-2.71,0.111-3.93,0.33
		c-1.221,0.221-2.41,0.51-3.57,0.87c-0.76-1.32-1.14-2.899-1.14-4.74c1.359-0.438,2.859-0.78,4.5-1.021
		c1.64-0.239,3.219-0.359,4.74-0.359c3.999,0,7.04,0.91,9.12,2.73c2.08,1.819,3.12,4.729,3.12,8.729v19.261
		c-1.4,0.32-3.1,0.65-5.1,0.989s-4.041,0.511-6.12,0.511c-1.96,0-3.73-0.181-5.31-0.541c-1.581-0.358-2.92-0.938-4.02-1.739
		c-1.101-0.8-1.95-1.819-2.55-3.061c-0.6-1.239-0.9-2.739-0.9-4.5c0-1.72,0.35-3.229,1.05-4.53c0.699-1.299,1.65-2.379,2.85-3.239
		c1.2-0.859,2.58-1.5,4.14-1.92c1.56-0.421,3.2-0.63,4.92-0.63c1.28,0,2.33,0.029,3.15,0.091c0.819,0.06,1.509,0.13,2.07,0.209
		V579.221z M211.801,585.04c-0.6-0.079-1.36-0.159-2.28-0.24c-0.92-0.079-1.7-0.12-2.34-0.12c-2.48,0-4.371,0.461-5.67,1.381
		c-1.3,0.92-1.95,2.32-1.95,4.199c0,1.2,0.22,2.142,0.66,2.82c0.44,0.681,0.99,1.199,1.65,1.561c0.66,0.359,1.39,0.58,2.19,0.659
		c0.8,0.081,1.56,0.12,2.28,0.12c0.919,0,1.869-0.05,2.85-0.15c0.979-0.1,1.85-0.249,2.61-0.448V585.04L211.801,585.04z"/>
	<path fill="#AAAAAA" d="M226.441,555.52c0.439-0.078,0.93-0.139,1.47-0.18c0.54-0.039,1.029-0.061,1.47-0.061
		c0.439,0,0.93,0.021,1.47,0.061c0.54,0.041,1.029,0.102,1.47,0.18V590.2c0,1.12,0.099,2.001,0.3,2.64
		c0.2,0.642,0.47,1.131,0.81,1.471c0.339,0.341,0.74,0.562,1.2,0.66c0.459,0.101,0.95,0.149,1.47,0.149
		c0.36,0,0.77-0.021,1.23-0.061c0.459-0.04,0.85-0.1,1.17-0.181c0.36,1.401,0.54,2.921,0.54,4.561
		c-0.561,0.199-1.24,0.329-2.04,0.391c-0.801,0.061-1.541,0.09-2.22,0.09c-1.161,0-2.241-0.141-3.24-0.42
		c-1-0.279-1.88-0.74-2.64-1.38c-0.76-0.64-1.36-1.5-1.8-2.58s-0.66-2.42-0.66-4.021V555.52z"/>
	<path fill="#AAAAAA" d="M248.88,585.58c0.08,3.359,0.949,5.82,2.61,7.38c1.659,1.56,4.11,2.34,7.35,2.34
		c2.839,0,5.54-0.499,8.1-1.5c0.32,0.602,0.58,1.331,0.78,2.19c0.2,0.859,0.32,1.71,0.36,2.55c-1.32,0.561-2.77,0.979-4.35,1.26
		c-1.581,0.28-3.33,0.421-5.25,0.421c-2.8,0-5.2-0.391-7.2-1.171c-2.001-0.78-3.651-1.88-4.95-3.3c-1.3-1.42-2.25-3.1-2.85-5.04
		c-0.6-1.938-0.9-4.069-0.9-6.39c0-2.28,0.29-4.41,0.87-6.392c0.579-1.979,1.47-3.698,2.67-5.159c1.2-1.459,2.709-2.619,4.53-3.479
		c1.82-0.86,3.97-1.29,6.45-1.29c2.12,0,3.979,0.359,5.58,1.08c1.599,0.72,2.94,1.71,4.02,2.97c1.08,1.262,1.899,2.762,2.46,4.5
		c0.56,1.74,0.84,3.63,0.84,5.671c0,0.562-0.021,1.149-0.06,1.771c-0.04,0.621-0.081,1.15-0.12,1.59L248.88,585.58L248.88,585.58z
		 M264.12,581.141c0-1.119-0.15-2.189-0.45-3.211c-0.3-1.02-0.74-1.908-1.32-2.67c-0.58-0.76-1.32-1.369-2.22-1.83
		c-0.9-0.459-1.971-0.688-3.21-0.688c-2.44,0-4.311,0.739-5.61,2.22c-1.3,1.48-2.09,3.54-2.37,6.181L264.12,581.141L264.12,581.141z
		"/>
</g>
<g>
	<path fill="#AAAAAA" d="M834.939,500.38h21.479c0.24,1.2,0.359,2.4,0.359,3.601c0,1.28-0.119,2.52-0.359,3.72h-13.801l-0.359,8.58
		c0.72-0.159,1.359-0.271,1.92-0.33c0.561-0.061,1.141-0.09,1.74-0.09c1.959,0,3.739,0.27,5.34,0.81s2.97,1.341,4.109,2.4
		c1.141,1.061,2.028,2.37,2.67,3.93c0.64,1.56,0.961,3.36,0.961,5.4c0,2.48-0.431,4.66-1.291,6.54c-0.86,1.881-2.08,3.46-3.66,4.739
		s-3.5,2.24-5.76,2.88s-4.79,0.96-7.59,0.96c-0.521,0-1.17-0.029-1.949-0.09c-0.781-0.06-1.621-0.161-2.521-0.3
		c-0.899-0.141-1.852-0.33-2.852-0.57c-1-0.239-1.96-0.521-2.879-0.84c0.119-1.241,0.379-2.46,0.779-3.66
		c0.398-1.199,0.84-2.379,1.319-3.54c1.399,0.48,2.72,0.861,3.96,1.141c1.239,0.28,2.561,0.42,3.96,0.42c1.8,0,3.3-0.2,4.5-0.6
		c1.199-0.399,2.181-0.931,2.939-1.591c0.76-0.659,1.3-1.419,1.621-2.279c0.317-0.859,0.479-1.749,0.479-2.67
		c0-2.04-0.659-3.62-1.979-4.74c-1.32-1.12-3.461-1.681-6.42-1.681c-1.161,0-2.291,0.111-3.392,0.33
		c-1.101,0.221-2.211,0.61-3.33,1.17l-0.899-0.72L834.939,500.38z"/>
	<path fill="#AAAAAA" d="M881.499,540.22c-2.681,0-5.001-0.501-6.96-1.5c-1.961-1-3.57-2.399-4.83-4.2c-1.26-1.8-2.2-3.93-2.82-6.39
		c-0.619-2.46-0.93-5.149-0.93-8.07c0-2.919,0.32-5.62,0.96-8.1s1.601-4.62,2.88-6.42s2.91-3.21,4.891-4.23
		c1.979-1.02,4.33-1.529,7.05-1.529c2.68,0,5,0.51,6.961,1.529c1.959,1.021,3.579,2.431,4.858,4.23c1.28,1.8,2.222,3.939,2.82,6.42
		c0.6,2.479,0.9,5.181,0.9,8.1c0,2.92-0.32,5.61-0.961,8.07s-1.601,4.59-2.879,6.39c-1.281,1.801-2.922,3.201-4.92,4.2
		C886.52,539.719,884.178,540.22,881.499,540.22z M881.619,533.02c2.04,0,3.63-1.05,4.77-3.149c1.142-2.101,1.711-5.37,1.711-9.811
		c0-4.439-0.569-7.71-1.711-9.81c-1.14-2.1-2.729-3.15-4.77-3.15c-2.08,0-3.711,1.051-4.891,3.15c-1.181,2.1-1.771,5.37-1.771,9.81
		c0,4.44,0.6,7.71,1.8,9.811C877.958,531.97,879.579,533.02,881.619,533.02z"/>
	<path fill="#AAAAAA" d="M909.158,527.74c-1.334,0-2.486-0.24-3.46-0.721c-0.975-0.479-1.773-1.112-2.399-1.899
		c-0.627-0.786-1.094-1.688-1.4-2.7s-0.459-2.066-0.459-3.16c0-1.093,0.152-2.152,0.459-3.18c0.308-1.026,0.773-1.933,1.4-2.72
		c0.626-0.786,1.426-1.42,2.399-1.9c0.973-0.479,2.126-0.72,3.46-0.72c1.307,0,2.445,0.24,3.42,0.72c0.974,0.48,1.78,1.114,2.42,1.9
		c0.641,0.787,1.113,1.693,1.42,2.72c0.307,1.027,0.461,2.087,0.461,3.18c0,1.094-0.154,2.147-0.461,3.16
		c-0.307,1.014-0.779,1.914-1.42,2.7c-0.641,0.787-1.446,1.42-2.42,1.899C911.604,527.5,910.465,527.74,909.158,527.74z
		 M909.158,523.94c0.961,0,1.666-0.427,2.12-1.28c0.452-0.854,0.681-1.986,0.681-3.4c0-1.439-0.229-2.58-0.681-3.42
		c-0.454-0.84-1.159-1.26-2.12-1.26c-0.96,0-1.666,0.42-2.119,1.26c-0.454,0.84-0.682,1.98-0.682,3.42
		c0,1.414,0.228,2.547,0.682,3.4C907.492,523.514,908.198,523.94,909.158,523.94z M927.52,511.14c0.905-0.159,1.84-0.239,2.8-0.239
		c0.825,0,1.745,0.08,2.76,0.239l-19.359,28.28c-0.934,0.16-1.827,0.24-2.68,0.24c-0.907,0-1.854-0.08-2.841-0.24L927.52,511.14z
		 M932.078,539.98c-1.334,0-2.486-0.24-3.459-0.721c-0.975-0.479-1.774-1.112-2.4-1.899c-0.627-0.786-1.094-1.687-1.399-2.7
		c-0.308-1.014-0.46-2.066-0.46-3.16c0-1.093,0.152-2.153,0.46-3.18c0.307-1.026,0.772-1.934,1.399-2.721
		c0.626-0.785,1.426-1.42,2.4-1.899c0.973-0.48,2.125-0.72,3.459-0.72c1.307,0,2.447,0.239,3.42,0.72
		c0.974,0.479,1.78,1.114,2.42,1.899c0.641,0.787,1.113,1.694,1.42,2.721s0.461,2.087,0.461,3.18c0,1.094-0.154,2.146-0.461,3.16
		s-0.779,1.914-1.42,2.7c-0.64,0.786-1.446,1.42-2.42,1.899C934.525,539.74,933.385,539.98,932.078,539.98z M932.078,536.18
		c0.961,0,1.666-0.426,2.12-1.279c0.453-0.854,0.681-1.986,0.681-3.4c0-1.44-0.228-2.58-0.681-3.42
		c-0.454-0.84-1.159-1.26-2.12-1.26c-0.959,0-1.666,0.42-2.119,1.26c-0.454,0.84-0.681,1.979-0.681,3.42
		c0,1.414,0.227,2.547,0.681,3.4C930.412,535.754,931.119,536.18,932.078,536.18z"/>
	<path fill="#AAAAAA" d="M832.719,556.359h22.562c0.08,0.399,0.14,0.831,0.18,1.291s0.062,0.909,0.062,1.35s-0.021,0.9-0.062,1.38
		c-0.04,0.48-0.1,0.921-0.18,1.32h-16.44v12.659h13.74c0.079,0.44,0.139,0.891,0.18,1.351c0.039,0.46,0.061,0.91,0.061,1.351
		c0,0.439-0.021,0.892-0.061,1.351c-0.041,0.46-0.101,0.91-0.18,1.35h-13.74v19.74c-0.479,0.08-0.971,0.14-1.471,0.18
		c-0.5,0.039-1.029,0.062-1.59,0.062c-0.521,0-1.051-0.021-1.59-0.062c-0.541-0.04-1.03-0.1-1.472-0.18L832.719,556.359
		L832.719,556.359z"/>
	<path fill="#AAAAAA" d="M865.721,585.58c0.079,3.359,0.949,5.82,2.609,7.38c1.659,1.56,4.109,2.34,7.35,2.34
		c2.84,0,5.54-0.499,8.101-1.5c0.319,0.602,0.58,1.331,0.78,2.19c0.199,0.859,0.319,1.71,0.359,2.55
		c-1.32,0.561-2.77,0.979-4.35,1.26c-1.581,0.28-3.33,0.421-5.25,0.421c-2.801,0-5.201-0.391-7.2-1.171
		c-2.001-0.78-3.651-1.88-4.95-3.3c-1.301-1.42-2.25-3.1-2.85-5.04c-0.601-1.938-0.9-4.069-0.9-6.39c0-2.28,0.289-4.41,0.87-6.392
		c0.579-1.979,1.47-3.698,2.67-5.159c1.2-1.459,2.71-2.619,4.53-3.479c1.818-0.86,3.969-1.29,6.449-1.29
		c2.119,0,3.979,0.359,5.58,1.08c1.6,0.72,2.939,1.71,4.021,2.97c1.08,1.262,1.899,2.762,2.46,4.5c0.561,1.74,0.84,3.63,0.84,5.671
		c0,0.562-0.021,1.149-0.061,1.771c-0.039,0.621-0.08,1.15-0.119,1.59L865.721,585.58L865.721,585.58z M880.96,581.141
		c0-1.119-0.149-2.189-0.45-3.211c-0.3-1.02-0.74-1.908-1.32-2.67c-0.579-0.76-1.318-1.369-2.219-1.83
		c-0.899-0.459-1.971-0.688-3.211-0.688c-2.438,0-4.311,0.739-5.608,2.22c-1.302,1.48-2.091,3.54-2.371,6.181L880.96,581.141
		L880.96,581.141z"/>
	<path fill="#AAAAAA" d="M894.64,568.721c0.44-0.08,0.87-0.141,1.29-0.181s0.851-0.06,1.29-0.06c0.44,0,0.851,0.02,1.229,0.06
		c0.381,0.04,0.79,0.101,1.229,0.181c0.12,0.601,0.24,1.391,0.36,2.369c0.12,0.98,0.18,1.812,0.18,2.49
		c0.36-0.721,0.811-1.41,1.352-2.07c0.539-0.66,1.179-1.25,1.92-1.77c0.738-0.521,1.59-0.939,2.55-1.26
		c0.96-0.321,2.019-0.48,3.18-0.48c2.399,0,4.25,0.49,5.55,1.471c1.301,0.981,2.289,2.351,2.972,4.109
		c0.397-0.68,0.889-1.359,1.47-2.04c0.579-0.68,1.229-1.28,1.95-1.8c0.72-0.521,1.539-0.939,2.459-1.26
		c0.92-0.321,1.96-0.48,3.121-0.48c3.559,0,6.148,1,7.77,3s2.431,4.961,2.431,8.88v19.62c-0.44,0.08-0.939,0.14-1.5,0.18
		c-0.562,0.039-1.062,0.062-1.5,0.062c-0.44,0-0.931-0.021-1.471-0.062s-1.029-0.1-1.47-0.18v-17.88c0-2.761-0.42-4.83-1.26-6.21
		c-0.841-1.381-2.222-2.07-4.142-2.07c-2.039,0-3.688,0.74-4.949,2.221s-1.891,3.66-1.891,6.539v17.4
		c-0.439,0.08-0.93,0.14-1.47,0.18c-0.54,0.039-1.03,0.062-1.47,0.062c-0.441,0-0.932-0.021-1.472-0.062
		c-0.538-0.04-1.029-0.1-1.47-0.18v-18.3c0-2.68-0.4-4.689-1.2-6.03c-0.801-1.34-2.08-2.01-3.84-2.01c-1,0-1.94,0.221-2.819,0.66
		c-0.881,0.439-1.65,1.1-2.311,1.979c-0.66,0.88-1.181,1.991-1.561,3.33c-0.381,1.341-0.569,2.891-0.569,4.649V599.5
		c-0.441,0.08-0.931,0.14-1.472,0.18c-0.538,0.039-1.028,0.062-1.47,0.062c-0.44,0-0.939-0.021-1.5-0.062s-1.06-0.1-1.5-0.18
		v-30.779H894.64z"/>
	<path fill="#AAAAAA" d="M962.139,579.221c0-2.359-0.6-4-1.8-4.921c-1.2-0.919-2.94-1.38-5.22-1.38c-1.4,0-2.711,0.111-3.93,0.33
		c-1.222,0.221-2.41,0.51-3.57,0.87c-0.76-1.32-1.141-2.899-1.141-4.74c1.358-0.438,2.858-0.78,4.5-1.021
		c1.641-0.239,3.22-0.359,4.739-0.359c4,0,7.04,0.91,9.12,2.73c2.079,1.819,3.12,4.729,3.12,8.729v19.261
		c-1.4,0.32-3.1,0.65-5.1,0.989c-2.001,0.339-4.041,0.511-6.12,0.511c-1.96,0-3.73-0.181-5.311-0.541
		c-1.581-0.358-2.921-0.938-4.021-1.739c-1.102-0.8-1.95-1.819-2.55-3.061c-0.601-1.239-0.9-2.739-0.9-4.5
		c0-1.72,0.35-3.229,1.051-4.53c0.699-1.299,1.649-2.379,2.851-3.239c1.198-0.859,2.579-1.5,4.14-1.92
		c1.561-0.421,3.2-0.63,4.92-0.63c1.28,0,2.33,0.029,3.15,0.091c0.818,0.06,1.509,0.13,2.068,0.209v-1.139H962.139z M962.139,585.04
		c-0.6-0.079-1.358-0.159-2.278-0.24c-0.921-0.079-1.701-0.12-2.341-0.12c-2.479,0-4.371,0.461-5.67,1.381
		c-1.301,0.92-1.951,2.32-1.951,4.199c0,1.2,0.222,2.142,0.66,2.82c0.44,0.681,0.99,1.199,1.65,1.561
		c0.66,0.359,1.39,0.58,2.189,0.659c0.801,0.081,1.561,0.12,2.28,0.12c0.919,0,1.869-0.05,2.851-0.15
		c0.979-0.1,1.85-0.249,2.608-0.448L962.139,585.04L962.139,585.04z"/>
	<path fill="#AAAAAA" d="M976.779,555.52c0.438-0.078,0.93-0.139,1.47-0.18c0.54-0.039,1.029-0.061,1.47-0.061
		c0.439,0,0.93,0.021,1.471,0.061c0.539,0.041,1.029,0.102,1.471,0.18V590.2c0,1.12,0.099,2.001,0.3,2.64
		c0.199,0.642,0.47,1.131,0.811,1.471c0.339,0.341,0.739,0.562,1.199,0.66c0.46,0.1,0.95,0.149,1.472,0.149
		c0.358,0,0.77-0.021,1.229-0.061c0.46-0.04,0.85-0.1,1.171-0.181c0.359,1.401,0.539,2.921,0.539,4.561
		c-0.562,0.199-1.24,0.329-2.039,0.391c-0.801,0.061-1.541,0.09-2.221,0.09c-1.16,0-2.24-0.141-3.24-0.42s-1.881-0.74-2.64-1.38
		c-0.762-0.64-1.36-1.5-1.801-2.58s-0.659-2.42-0.659-4.021L976.779,555.52L976.779,555.52z"/>
	<path fill="#AAAAAA" d="M999.219,585.58c0.08,3.359,0.949,5.82,2.609,7.38s4.109,2.34,7.351,2.34c2.839,0,5.54-0.499,8.101-1.5
		c0.318,0.602,0.578,1.331,0.779,2.19c0.199,0.859,0.32,1.71,0.359,2.55c-1.318,0.561-2.77,0.979-4.35,1.26
		c-1.58,0.281-3.33,0.421-5.25,0.421c-2.801,0-5.2-0.391-7.199-1.171c-2.002-0.78-3.651-1.88-4.951-3.3s-2.25-3.1-2.85-5.04
		c-0.601-1.938-0.9-4.069-0.9-6.39c0-2.28,0.29-4.41,0.871-6.392c0.578-1.979,1.469-3.698,2.67-5.159
		c1.199-1.459,2.709-2.619,4.529-3.479s3.97-1.29,6.449-1.29c2.121,0,3.979,0.359,5.58,1.08c1.6,0.72,2.94,1.71,4.021,2.97
		c1.08,1.262,1.898,2.762,2.459,4.5c0.561,1.74,0.84,3.63,0.84,5.671c0,0.562-0.02,1.149-0.06,1.771s-0.081,1.15-0.12,1.59
		L999.219,585.58L999.219,585.58z M1014.459,581.141c0-1.119-0.15-2.189-0.451-3.211c-0.299-1.02-0.74-1.908-1.318-2.67
		c-0.58-0.76-1.319-1.369-2.221-1.83c-0.899-0.459-1.971-0.688-3.211-0.688c-2.438,0-4.311,0.739-5.608,2.22
		c-1.302,1.48-2.091,3.54-2.37,6.181L1014.459,581.141L1014.459,581.141z"/>
</g>
</svg>
