<?xml version="1.0" encoding="utf-8"?>
<!-- Generator: Adobe Illustrator 16.0.0, SVG Export Plug-In . SVG Version: 6.00 Build 0)  -->
<!DOCTYPE svg PUBLIC "-//W3C//DTD SVG 1.1//EN" "http://www.w3.org/Graphics/SVG/1.1/DTD/svg11.dtd">
<svg version="1.1" id="Layer_1" xmlns="http://www.w3.org/2000/svg" xmlns:xlink="http://www.w3.org/1999/xlink" x="0px" y="0px"
	 width="1100px" height="1100px" viewBox="0 0 1100 1100" enable-background="new 0 0 1100 1100" xml:space="preserve">
<linearGradient id="SVGID_1_" gradientUnits="userSpaceOnUse" x1="129.2275" y1="881.7725" x2="482.7669" y2="528.233" gradientTransform="matrix(1 0 0 -1 244 1255)">
	<stop  offset="0" style="stop-color:#E96B31"/>
	<stop  offset="1" style="stop-color:#AF2277"/>
</linearGradient>
<path fill="url(#SVGID_1_)" d="M562,307.305c47.91,2.322,93.445,18.509,132.107,47.034c19.58,14.447,36.85,31.689,51.326,51.25
	c13.217,17.855,23.871,37.331,31.73,57.983L562,533.483V307.305 M555,300.063v243.054l231.221-75.128
	C752.794,371.698,662.167,302.167,555,300.063L555,300.063z M784.577,486.398C790.169,507.066,793,528.427,793,550
	c0,38.668-8.812,75.628-26.196,109.855c-15.506,30.529-37.7,57.862-64.441,79.436L569.416,556.308L784.577,486.398 M789.309,477.5
	L558.09,552.628l142.872,196.646C761.132,703.621,800,631.354,800,550C800,524.785,796.252,500.449,789.309,477.5L789.309,477.5z
	 M538,307.305v238.795l-140.361,193.19c-26.74-21.572-48.936-48.905-64.441-79.436C315.814,625.628,307,588.668,307,550
	c0-64.06,24.712-124.51,69.584-170.215c21.825-22.229,47.287-39.832,75.678-52.318C479.44,315.514,508.248,308.743,538,307.305
	 M545,300.063C409.238,302.729,300,413.601,300,550c0,81.354,38.869,153.621,99.039,199.273L545,548.375V300.063L545,300.063z
	 M550,570.415l132.957,182.999C643.407,779.335,597.593,793,550,793c-47.592,0-93.407-13.665-132.958-39.586L550,570.415
	 M550,558.506l-142.875,196.65C447.624,783.414,496.872,800,550,800c53.129,0,102.376-16.586,142.875-44.844L550,558.506
	L550,558.506z"/>
<g enable-background="new    ">
	<path fill="#AAAAAA" d="M17.355,391.844L31.22,363.82c1.11,0.131,2.18,0.368,3.209,0.711s2,0.874,2.915,1.592l-10.092,20.479h7.006
		v-7.839c0.555-0.064,1.094-0.122,1.617-0.171c0.522-0.049,1.061-0.073,1.617-0.073c0.588,0,1.176,0.024,1.764,0.073
		s1.176,0.106,1.764,0.171v7.839h3.527c0.196,0.948,0.294,1.928,0.294,2.939c0,0.49-0.024,0.997-0.073,1.519
		c-0.049,0.523-0.123,1.013-0.221,1.47h-3.527v6.859c-0.556,0.064-1.095,0.122-1.617,0.171c-0.523,0.05-1.062,0.074-1.617,0.074
		c-0.588,0-1.176-0.024-1.764-0.074c-0.588-0.049-1.176-0.106-1.764-0.171v-6.859H17.796L17.355,391.844z"/>
	<path fill="#AAAAAA" d="M60.712,397.086c-2.188,0-4.083-0.409-5.683-1.225c-1.601-0.816-2.915-1.96-3.944-3.43
		s-1.796-3.209-2.303-5.218c-0.507-2.009-0.759-4.204-0.759-6.589c0-2.384,0.261-4.589,0.784-6.614
		c0.522-2.024,1.306-3.772,2.352-5.242c1.045-1.47,2.376-2.621,3.993-3.453c1.617-0.833,3.535-1.25,5.756-1.25
		c2.188,0,4.083,0.417,5.683,1.25c1.6,0.832,2.922,1.983,3.968,3.453c1.045,1.47,1.812,3.218,2.303,5.242
		c0.49,2.025,0.735,4.23,0.735,6.614c0,2.385-0.262,4.58-0.784,6.589s-1.307,3.748-2.352,5.218c-1.045,1.47-2.384,2.613-4.017,3.43
		C64.811,396.677,62.9,397.086,60.712,397.086z M60.81,391.207c1.666,0,2.964-0.857,3.895-2.572s1.396-4.385,1.396-8.01
		c0-3.626-0.466-6.296-1.396-8.011c-0.931-1.714-2.229-2.571-3.895-2.571c-1.698,0-3.03,0.857-3.993,2.571
		c-0.964,1.715-1.445,4.385-1.445,8.011c0,3.625,0.49,6.295,1.47,8.01C57.822,390.35,59.145,391.207,60.81,391.207z"/>
</g>
<g enable-background="new    ">
	<path fill="#AAAAAA" d="M83.297,386.896c-1.089,0-2.03-0.195-2.825-0.588c-0.795-0.392-1.448-0.909-1.959-1.551
		c-0.512-0.643-0.893-1.377-1.143-2.205c-0.25-0.827-0.376-1.688-0.376-2.58s0.125-1.758,0.376-2.597
		c0.25-0.838,0.631-1.578,1.143-2.221c0.511-0.643,1.165-1.16,1.959-1.552s1.736-0.588,2.825-0.588c1.067,0,1.998,0.196,2.792,0.588
		s1.454,0.909,1.976,1.552s0.909,1.383,1.16,2.221c0.25,0.839,0.375,1.704,0.375,2.597s-0.125,1.753-0.375,2.58
		c-0.25,0.828-0.637,1.562-1.16,2.205c-0.522,0.642-1.181,1.159-1.976,1.551C85.294,386.7,84.364,386.896,83.297,386.896z
		 M83.297,383.793c0.784,0,1.361-0.348,1.731-1.045s0.555-1.622,0.555-2.776c0-1.176-0.185-2.106-0.555-2.793
		c-0.37-0.686-0.947-1.028-1.731-1.028c-0.784,0-1.361,0.343-1.731,1.028c-0.371,0.687-0.555,1.617-0.555,2.793
		c0,1.154,0.185,2.079,0.555,2.776C81.936,383.445,82.513,383.793,83.297,383.793z M98.289,373.342
		c0.74-0.131,1.502-0.196,2.286-0.196c0.675,0,1.426,0.065,2.253,0.196l-15.808,23.091c-0.763,0.131-1.492,0.196-2.188,0.196
		c-0.74,0-1.514-0.065-2.319-0.196L98.289,373.342z M102.012,396.89c-1.089,0-2.031-0.195-2.825-0.588
		c-0.795-0.392-1.448-0.908-1.959-1.551c-0.512-0.643-0.893-1.377-1.143-2.205c-0.251-0.827-0.376-1.687-0.376-2.58
		c0-0.893,0.125-1.758,0.376-2.597c0.25-0.838,0.631-1.578,1.143-2.221c0.511-0.642,1.165-1.159,1.959-1.552
		c0.794-0.392,1.736-0.588,2.825-0.588c1.066,0,1.998,0.196,2.792,0.588c0.794,0.393,1.454,0.91,1.976,1.552
		c0.522,0.643,0.909,1.383,1.159,2.221c0.25,0.839,0.376,1.704,0.376,2.597c0,0.894-0.125,1.753-0.376,2.58
		c-0.25,0.828-0.637,1.562-1.159,2.205s-1.182,1.159-1.976,1.551C104.009,396.694,103.078,396.89,102.012,396.89z M102.012,393.787
		c0.784,0,1.36-0.348,1.731-1.045c0.37-0.696,0.555-1.622,0.555-2.776c0-1.176-0.185-2.106-0.555-2.793
		c-0.371-0.686-0.947-1.028-1.731-1.028s-1.361,0.343-1.731,1.028c-0.371,0.687-0.555,1.617-0.555,2.793
		c0,1.154,0.185,2.08,0.555,2.776C100.651,393.439,101.228,393.787,102.012,393.787z"/>
</g>
<g enable-background="new    ">
	<path fill="#AAAAAA" d="M20.932,410.266c1.11-0.131,2.45-0.253,4.017-0.368c1.568-0.113,3.103-0.171,4.605-0.171
		c6.173,0,10.786,1.567,13.84,4.703c3.054,3.136,4.581,7.643,4.581,13.521c0,6.141-1.56,10.697-4.678,13.669
		c-3.12,2.973-7.766,4.458-13.938,4.458c-1.536,0-3.054-0.058-4.556-0.172c-1.502-0.114-2.792-0.253-3.87-0.416V410.266z
		 M25.929,441.375c0.457,0.065,1.021,0.122,1.69,0.172c0.669,0.049,1.379,0.073,2.131,0.073c1.927,0,3.682-0.221,5.267-0.661
		c1.584-0.441,2.947-1.184,4.091-2.229c1.143-1.045,2.025-2.457,2.646-4.238c0.62-1.779,0.931-4.009,0.931-6.687
		c0-2.45-0.311-4.54-0.931-6.271c-0.621-1.73-1.494-3.143-2.621-4.237c-1.127-1.094-2.474-1.887-4.042-2.376
		c-1.567-0.49-3.299-0.735-5.193-0.735c-0.621,0-1.298,0.009-2.033,0.024c-0.735,0.017-1.38,0.073-1.935,0.172V441.375z"/>
	<path fill="#AAAAAA" d="M58.361,434.124c0.065,2.744,0.775,4.752,2.131,6.026c1.355,1.273,3.356,1.91,6.001,1.91
		c2.319,0,4.523-0.408,6.614-1.225c0.261,0.49,0.473,1.086,0.637,1.788c0.163,0.703,0.261,1.396,0.294,2.082
		c-1.078,0.458-2.262,0.8-3.552,1.029c-1.291,0.228-2.719,0.343-4.287,0.343c-2.287,0-4.246-0.318-5.879-0.955
		c-1.634-0.637-2.981-1.535-4.042-2.694c-1.062-1.159-1.837-2.531-2.327-4.116c-0.49-1.583-0.735-3.322-0.735-5.217
		c0-1.862,0.237-3.602,0.71-5.218c0.473-1.617,1.2-3.021,2.18-4.214c0.98-1.191,2.212-2.139,3.699-2.841
		c1.486-0.702,3.241-1.054,5.267-1.054c1.731,0,3.25,0.294,4.556,0.882c1.306,0.588,2.401,1.396,3.283,2.425
		c0.882,1.029,1.551,2.254,2.009,3.675c0.457,1.421,0.686,2.964,0.686,4.63c0,0.458-0.017,0.939-0.049,1.445
		c-0.033,0.507-0.066,0.939-0.098,1.298H58.361z M70.805,430.499c0-0.914-0.123-1.788-0.368-2.621s-0.604-1.56-1.078-2.181
		c-0.474-0.62-1.078-1.118-1.813-1.494c-0.735-0.375-1.609-0.563-2.621-0.563c-1.992,0-3.52,0.605-4.581,1.813
		c-1.062,1.208-1.707,2.89-1.935,5.046H70.805z"/>
	<path fill="#AAAAAA" d="M77.909,420.357c0.457-0.064,0.931-0.114,1.42-0.146c0.49-0.032,0.931-0.049,1.323-0.049
		c0.424,0,0.89,0.017,1.396,0.049c0.506,0.032,0.938,0.082,1.298,0.146l6.859,20.724l6.908-20.724
		c0.359-0.064,0.767-0.114,1.225-0.146c0.457-0.032,0.898-0.049,1.323-0.049c0.359,0,0.767,0.017,1.225,0.049
		c0.457,0.032,0.914,0.082,1.372,0.146l-9.798,25.133c-0.425,0.065-0.85,0.114-1.274,0.147c-0.425,0.031-0.816,0.049-1.176,0.049
		s-0.743-0.018-1.151-0.049c-0.409-0.033-0.808-0.082-1.2-0.147L77.909,420.357z"/>
	<path fill="#AAAAAA" d="M109.655,434.124c0.065,2.744,0.775,4.752,2.131,6.026c1.355,1.273,3.356,1.91,6.001,1.91
		c2.319,0,4.523-0.408,6.614-1.225c0.261,0.49,0.473,1.086,0.637,1.788c0.163,0.703,0.261,1.396,0.294,2.082
		c-1.078,0.458-2.262,0.8-3.552,1.029c-1.291,0.228-2.719,0.343-4.287,0.343c-2.287,0-4.246-0.318-5.879-0.955
		c-1.634-0.637-2.981-1.535-4.042-2.694c-1.062-1.159-1.837-2.531-2.327-4.116c-0.49-1.583-0.735-3.322-0.735-5.217
		c0-1.862,0.237-3.602,0.71-5.218c0.473-1.617,1.2-3.021,2.18-4.214c0.98-1.191,2.212-2.139,3.699-2.841
		c1.486-0.702,3.241-1.054,5.267-1.054c1.731,0,3.25,0.294,4.556,0.882c1.306,0.588,2.401,1.396,3.283,2.425
		c0.882,1.029,1.551,2.254,2.009,3.675c0.457,1.421,0.686,2.964,0.686,4.63c0,0.458-0.017,0.939-0.049,1.445
		c-0.033,0.507-0.066,0.939-0.098,1.298H109.655z M122.099,430.499c0-0.914-0.123-1.788-0.368-2.621s-0.604-1.56-1.078-2.181
		c-0.474-0.62-1.078-1.118-1.813-1.494c-0.735-0.375-1.609-0.563-2.621-0.563c-1.992,0-3.52,0.605-4.581,1.813
		c-1.062,1.208-1.707,2.89-1.935,5.046H122.099z"/>
	<path fill="#AAAAAA" d="M133.171,409.579c0.359-0.064,0.759-0.113,1.2-0.146c0.441-0.032,0.841-0.049,1.2-0.049
		s0.76,0.017,1.201,0.049c0.441,0.033,0.84,0.082,1.2,0.146v28.317c0,0.915,0.081,1.634,0.245,2.155
		c0.163,0.523,0.383,0.924,0.661,1.201c0.277,0.277,0.604,0.457,0.98,0.538c0.375,0.082,0.775,0.123,1.2,0.123
		c0.294,0,0.628-0.017,1.004-0.049c0.375-0.032,0.693-0.081,0.955-0.147c0.294,1.144,0.441,2.385,0.441,3.724
		c-0.458,0.163-1.013,0.27-1.666,0.318c-0.654,0.049-1.258,0.073-1.812,0.073c-0.948,0-1.83-0.114-2.646-0.343
		c-0.817-0.229-1.536-0.604-2.156-1.127c-0.621-0.521-1.111-1.225-1.47-2.106c-0.36-0.882-0.539-1.976-0.539-3.282V409.579z"/>
	<path fill="#AAAAAA" d="M158.058,446.078c-1.959,0-3.674-0.335-5.144-1.004c-1.47-0.67-2.694-1.593-3.674-2.769
		s-1.707-2.563-2.18-4.164c-0.474-1.6-0.71-3.331-0.71-5.193c0-1.861,0.237-3.593,0.71-5.193c0.473-1.6,1.2-2.988,2.18-4.164
		s2.205-2.106,3.674-2.792c1.47-0.687,3.185-1.029,5.144-1.029c1.96,0,3.674,0.343,5.144,1.029c1.47,0.686,2.695,1.616,3.675,2.792
		c0.979,1.176,1.706,2.564,2.18,4.164c0.473,1.601,0.71,3.332,0.71,5.193c0,1.862-0.237,3.594-0.71,5.193
		c-0.474,1.601-1.2,2.988-2.18,4.164c-0.98,1.176-2.205,2.099-3.675,2.769C161.732,445.743,160.018,446.078,158.058,446.078z
		 M158.058,442.208c2.254,0,3.919-0.816,4.997-2.45c1.078-1.633,1.617-3.902,1.617-6.81c0-2.906-0.539-5.168-1.617-6.785
		c-1.078-1.617-2.743-2.425-4.997-2.425c-2.253,0-3.912,0.808-4.973,2.425c-1.062,1.617-1.592,3.879-1.592,6.785
		c0,2.907,0.53,5.177,1.592,6.81C154.146,441.392,155.805,442.208,158.058,442.208z"/>
	<path fill="#AAAAAA" d="M176.087,420.357c0.326-0.064,0.662-0.114,1.004-0.146c0.343-0.032,0.694-0.049,1.053-0.049
		c0.326,0,0.669,0.017,1.029,0.049c0.359,0.032,0.702,0.082,1.029,0.146c0.032,0.066,0.073,0.27,0.122,0.612
		c0.049,0.343,0.098,0.711,0.147,1.103c0.049,0.392,0.098,0.768,0.147,1.127c0.049,0.359,0.074,0.588,0.074,0.686
		c0.326-0.521,0.718-1.028,1.176-1.519c0.457-0.49,1.004-0.931,1.641-1.322c0.637-0.393,1.355-0.702,2.156-0.932
		c0.8-0.228,1.69-0.343,2.67-0.343c1.47,0,2.833,0.245,4.091,0.735c1.257,0.489,2.335,1.249,3.233,2.277
		c0.898,1.029,1.6,2.336,2.106,3.92s0.76,3.454,0.76,5.609c0,4.312-1.168,7.684-3.503,10.117c-2.335,2.433-5.643,3.649-9.921,3.649
		c-0.719,0-1.454-0.049-2.205-0.146c-0.752-0.099-1.405-0.229-1.959-0.393v11.513c-0.392,0.065-0.809,0.114-1.25,0.147
		c-0.441,0.032-0.841,0.049-1.2,0.049c-0.36,0-0.759-0.017-1.2-0.049c-0.441-0.033-0.841-0.082-1.201-0.147V420.357z
		 M180.938,441.375c0.62,0.229,1.257,0.392,1.911,0.49c0.653,0.098,1.501,0.146,2.547,0.146c1.176,0,2.253-0.188,3.233-0.563
		c0.98-0.375,1.82-0.955,2.523-1.739c0.702-0.783,1.257-1.771,1.666-2.964c0.408-1.191,0.612-2.604,0.612-4.237
		c0-2.613-0.482-4.687-1.445-6.223c-0.964-1.534-2.54-2.302-4.728-2.302c-0.817,0-1.601,0.146-2.352,0.44
		c-0.752,0.294-1.421,0.735-2.009,1.323s-1.062,1.331-1.421,2.229c-0.36,0.898-0.539,1.969-0.539,3.209V441.375z"/>
	<path fill="#AAAAAA" d="M208.667,434.124c0.065,2.744,0.775,4.752,2.131,6.026c1.355,1.273,3.356,1.91,6.001,1.91
		c2.319,0,4.523-0.408,6.614-1.225c0.261,0.49,0.473,1.086,0.637,1.788c0.163,0.703,0.261,1.396,0.294,2.082
		c-1.078,0.458-2.262,0.8-3.552,1.029c-1.291,0.228-2.719,0.343-4.287,0.343c-2.287,0-4.246-0.318-5.879-0.955
		c-1.634-0.637-2.981-1.535-4.042-2.694c-1.062-1.159-1.837-2.531-2.327-4.116c-0.49-1.583-0.735-3.322-0.735-5.217
		c0-1.862,0.237-3.602,0.71-5.218c0.473-1.617,1.2-3.021,2.18-4.214c0.98-1.191,2.212-2.139,3.699-2.841
		c1.486-0.702,3.241-1.054,5.267-1.054c1.731,0,3.25,0.294,4.556,0.882c1.306,0.588,2.401,1.396,3.283,2.425
		c0.882,1.029,1.551,2.254,2.009,3.675c0.457,1.421,0.686,2.964,0.686,4.63c0,0.458-0.017,0.939-0.049,1.445
		c-0.033,0.507-0.066,0.939-0.098,1.298H208.667z M221.11,430.499c0-0.914-0.123-1.788-0.368-2.621s-0.604-1.56-1.078-2.181
		c-0.474-0.62-1.078-1.118-1.813-1.494c-0.735-0.375-1.609-0.563-2.621-0.563c-1.992,0-3.52,0.605-4.581,1.813
		c-1.062,1.208-1.707,2.89-1.935,5.046H221.11z"/>
	<path fill="#AAAAAA" d="M232.28,420.357c0.359-0.064,0.702-0.114,1.029-0.146c0.326-0.032,0.669-0.049,1.029-0.049
		c0.359,0,0.718,0.017,1.078,0.049c0.359,0.032,0.686,0.082,0.98,0.146c0.098,0.49,0.196,1.136,0.294,1.936
		c0.098,0.801,0.147,1.478,0.147,2.033c0.686-1.11,1.592-2.074,2.719-2.891c1.127-0.816,2.572-1.225,4.336-1.225
		c0.261,0,0.531,0.008,0.809,0.024c0.277,0.017,0.514,0.041,0.71,0.073c0.065,0.294,0.114,0.604,0.147,0.931
		c0.032,0.327,0.049,0.67,0.049,1.029c0,0.392-0.024,0.801-0.074,1.225c-0.049,0.425-0.106,0.833-0.171,1.225
		c-0.262-0.065-0.531-0.098-0.808-0.098c-0.278,0-0.499,0-0.662,0c-0.882,0-1.723,0.122-2.523,0.367
		c-0.801,0.245-1.519,0.678-2.156,1.298c-0.637,0.621-1.144,1.47-1.519,2.548c-0.376,1.078-0.563,2.467-0.563,4.164v12.493
		c-0.36,0.065-0.759,0.114-1.2,0.147c-0.441,0.031-0.841,0.049-1.201,0.049s-0.759-0.018-1.2-0.049
		c-0.441-0.033-0.857-0.082-1.249-0.147V420.357z"/>
	<path fill="#AAAAAA" d="M267.26,418.3c0,1.405,0.465,2.523,1.396,3.356c0.931,0.832,2.425,1.249,4.483,1.249h10.68l4.507-6.173
		h0.392v6.173h6.369c0.13,0.556,0.196,1.192,0.196,1.91c0,0.36-0.017,0.711-0.049,1.054c-0.033,0.343-0.082,0.678-0.147,1.004
		h-6.369v7.251c0,1.993-0.343,3.74-1.029,5.242c-0.686,1.503-1.666,2.752-2.939,3.748c-1.273,0.996-2.801,1.739-4.581,2.229
		c-1.78,0.49-3.748,0.735-5.903,0.735c-1.731,0-3.397-0.196-4.997-0.588c-1.601-0.392-3.013-1.012-4.238-1.861
		c-1.225-0.85-2.197-1.943-2.915-3.283c-0.719-1.339-1.078-2.955-1.078-4.85c0-1.078,0.155-2.139,0.466-3.185
		c0.31-1.045,0.751-2.017,1.323-2.915c0.571-0.897,1.241-1.682,2.008-2.352c0.767-0.669,1.592-1.184,2.474-1.543
		c-1.405-0.62-2.589-1.511-3.552-2.67c-0.964-1.159-1.445-2.72-1.445-4.679c0-1.438,0.277-2.687,0.833-3.748
		c0.555-1.062,1.306-1.943,2.253-2.646c0.947-0.702,2.065-1.225,3.356-1.568c1.29-0.343,2.653-0.514,4.091-0.514
		c0.849,0,1.796,0.065,2.841,0.195c1.045,0.131,2.139,0.393,3.283,0.784c-0.033,0.752-0.131,1.413-0.294,1.984
		c-0.164,0.571-0.425,1.135-0.784,1.69c-0.85-0.262-1.666-0.449-2.45-0.563c-0.784-0.114-1.552-0.172-2.303-0.172
		c-1.078,0-1.984,0.14-2.719,0.417s-1.339,0.637-1.812,1.077c-0.474,0.441-0.817,0.939-1.029,1.494
		C267.365,417.141,267.26,417.712,267.26,418.3z M274.657,441.669c1.894,0,3.454-0.245,4.679-0.735
		c1.225-0.489,2.18-1.143,2.866-1.959s1.159-1.764,1.421-2.842c0.261-1.078,0.392-2.188,0.392-3.331v-5.83h-9.945
		c-1.176,0-2.237,0.204-3.184,0.612c-0.948,0.408-1.748,0.972-2.401,1.69c-0.654,0.719-1.16,1.543-1.519,2.474
		c-0.36,0.931-0.539,1.919-0.539,2.964c0,2.254,0.702,3.977,2.107,5.169C269.938,441.073,271.979,441.669,274.657,441.669z"/>
</g>
<g enable-background="new    ">
	<path fill="#AAAAAA" d="M20.882,459.257h19.352c0.098,0.653,0.147,1.371,0.147,2.155c0,0.359-0.009,0.735-0.025,1.127
		c-0.017,0.392-0.057,0.752-0.122,1.078H25.88v10.092h11.464c0.065,0.327,0.114,0.679,0.147,1.054
		c0.032,0.376,0.049,0.743,0.049,1.102c0,0.36-0.017,0.735-0.049,1.127c-0.033,0.393-0.082,0.752-0.147,1.078H25.88v12.052h14.746
		c0.098,0.654,0.147,1.372,0.147,2.155c0,0.36-0.008,0.735-0.024,1.127c-0.017,0.393-0.057,0.752-0.123,1.078H20.882V459.257z"/>
	<path fill="#AAAAAA" d="M46.75,469.349c0.359-0.064,0.71-0.114,1.053-0.146s0.693-0.049,1.053-0.049
		c0.359,0,0.694,0.017,1.004,0.049c0.31,0.032,0.645,0.082,1.004,0.146c0.098,0.49,0.196,1.151,0.294,1.984s0.147,1.527,0.147,2.082
		c0.326-0.555,0.743-1.11,1.249-1.666c0.506-0.555,1.085-1.053,1.739-1.494c0.653-0.44,1.404-0.8,2.254-1.077
		c0.849-0.277,1.78-0.417,2.792-0.417c2.874,0,4.997,0.825,6.369,2.475c1.372,1.649,2.058,4.091,2.058,7.324v15.922
		c-0.36,0.065-0.768,0.114-1.225,0.147c-0.458,0.031-0.866,0.049-1.225,0.049c-0.36,0-0.76-0.018-1.201-0.049
		c-0.441-0.033-0.841-0.082-1.2-0.147v-14.6c0-2.318-0.36-4.024-1.078-5.119c-0.719-1.094-1.862-1.642-3.43-1.642
		c-0.915,0-1.78,0.164-2.596,0.49c-0.817,0.326-1.536,0.833-2.156,1.519c-0.621,0.686-1.119,1.576-1.494,2.67
		c-0.376,1.095-0.563,2.409-0.563,3.944v12.737c-0.36,0.065-0.759,0.114-1.2,0.147c-0.441,0.031-0.841,0.049-1.201,0.049
		s-0.768-0.018-1.225-0.049c-0.458-0.033-0.866-0.082-1.225-0.147V469.349z"/>
	<path fill="#AAAAAA" d="M88.539,491.248c2.906,0.065,5.013,0.686,6.32,1.861c1.306,1.176,1.959,2.793,1.959,4.851
		c0,1.339-0.343,2.539-1.029,3.601c-0.686,1.062-1.633,1.976-2.841,2.744c-1.209,0.767-2.638,1.354-4.287,1.764
		c-1.65,0.407-3.438,0.612-5.365,0.612c-3.364,0-5.928-0.523-7.692-1.568s-2.646-2.694-2.646-4.948c0-1.339,0.359-2.539,1.078-3.601
		c0.718-1.062,1.649-1.903,2.792-2.523c-0.654-0.424-1.2-0.955-1.641-1.592s-0.662-1.429-0.662-2.376
		c0-1.208,0.27-2.254,0.809-3.136c0.539-0.882,1.265-1.665,2.18-2.352c-1.078-0.751-1.943-1.722-2.596-2.915
		c-0.654-1.191-0.98-2.539-0.98-4.042c0-1.24,0.228-2.4,0.686-3.478c0.457-1.078,1.118-2.017,1.984-2.817
		c0.865-0.8,1.936-1.429,3.209-1.886c1.274-0.457,2.727-0.687,4.36-0.687c1.47,0,2.8,0.213,3.993,0.637
		c1.192,0.425,2.212,0.964,3.062,1.617c0.653-0.522,1.535-0.955,2.646-1.299c1.11-0.343,2.335-0.514,3.674-0.514
		c0.13,0.62,0.196,1.307,0.196,2.058c0,0.359-0.017,0.734-0.049,1.127c-0.033,0.392-0.082,0.783-0.147,1.176h-4.409
		c0.359,0.556,0.637,1.159,0.833,1.812s0.294,1.404,0.294,2.253c0,1.34-0.245,2.548-0.735,3.626s-1.184,2.001-2.082,2.768
		c-0.899,0.768-1.968,1.356-3.209,1.764c-1.242,0.409-2.597,0.612-4.066,0.612c-1.34,0-2.547-0.146-3.625-0.44
		c-0.458,0.262-0.906,0.661-1.347,1.2s-0.661,1.119-0.661,1.739c0,0.588,0.212,1.103,0.637,1.543
		c0.424,0.441,1.372,0.679,2.841,0.711L88.539,491.248z M81.925,495.118c-1.47-0.033-2.572,0.359-3.307,1.176
		s-1.103,1.796-1.103,2.939c0,0.718,0.147,1.307,0.441,1.764s0.71,0.824,1.249,1.103c0.539,0.277,1.176,0.473,1.911,0.588
		c0.735,0.114,1.543,0.172,2.425,0.172c2.612,0,4.654-0.434,6.124-1.299c1.47-0.865,2.205-1.952,2.205-3.258
		c0-0.979-0.311-1.731-0.931-2.254c-0.621-0.522-1.764-0.801-3.429-0.832L81.925,495.118z M84.179,482.87
		c1.764,0,3.07-0.489,3.919-1.47c0.849-0.979,1.273-2.236,1.273-3.772c0-1.567-0.425-2.849-1.273-3.846
		c-0.85-0.995-2.156-1.494-3.919-1.494s-3.062,0.499-3.895,1.494c-0.833,0.997-1.249,2.278-1.249,3.846
		c0,1.536,0.417,2.793,1.249,3.772C81.117,482.381,82.415,482.87,84.179,482.87z"/>
	<path fill="#AAAAAA" d="M103.628,473.17h-3.185c-0.066-0.261-0.115-0.563-0.147-0.906c-0.033-0.343-0.049-0.678-0.049-1.004
		s0.016-0.662,0.049-1.005c0.032-0.343,0.081-0.645,0.147-0.906h7.937v25.133c-0.36,0.065-0.759,0.114-1.2,0.147
		c-0.441,0.031-0.841,0.049-1.2,0.049c-0.327,0-0.71-0.018-1.151-0.049c-0.441-0.033-0.841-0.082-1.2-0.147V473.17z M102.55,463.812
		c-0.065-0.392-0.106-0.815-0.122-1.273c-0.017-0.457-0.025-0.865-0.025-1.225s0.008-0.768,0.025-1.225
		c0.016-0.457,0.057-0.865,0.122-1.226c0.424-0.064,0.882-0.113,1.372-0.146c0.49-0.032,0.914-0.049,1.274-0.049
		c0.359,0,0.784,0.017,1.273,0.049c0.49,0.033,0.931,0.082,1.323,0.146c0.065,0.36,0.106,0.769,0.123,1.226
		c0.016,0.457,0.024,0.865,0.024,1.225s-0.008,0.768-0.024,1.225c-0.017,0.458-0.057,0.882-0.123,1.273
		c-0.392,0.066-0.825,0.115-1.298,0.147c-0.474,0.032-0.89,0.049-1.249,0.049c-0.392,0-0.833-0.017-1.323-0.049
		C103.432,463.928,102.974,463.879,102.55,463.812z"/>
	<path fill="#AAAAAA" d="M116.268,469.349c0.359-0.064,0.71-0.114,1.053-0.146s0.693-0.049,1.053-0.049
		c0.359,0,0.694,0.017,1.004,0.049c0.31,0.032,0.645,0.082,1.004,0.146c0.098,0.49,0.196,1.151,0.294,1.984s0.147,1.527,0.147,2.082
		c0.326-0.555,0.743-1.11,1.249-1.666c0.506-0.555,1.085-1.053,1.739-1.494c0.653-0.44,1.404-0.8,2.254-1.077
		c0.849-0.277,1.78-0.417,2.792-0.417c2.874,0,4.997,0.825,6.369,2.475c1.372,1.649,2.058,4.091,2.058,7.324v15.922
		c-0.36,0.065-0.768,0.114-1.225,0.147c-0.458,0.031-0.866,0.049-1.225,0.049c-0.36,0-0.76-0.018-1.201-0.049
		c-0.441-0.033-0.841-0.082-1.2-0.147v-14.6c0-2.318-0.36-4.024-1.078-5.119c-0.719-1.094-1.862-1.642-3.43-1.642
		c-0.915,0-1.78,0.164-2.596,0.49c-0.817,0.326-1.536,0.833-2.156,1.519c-0.621,0.686-1.119,1.576-1.494,2.67
		c-0.376,1.095-0.563,2.409-0.563,3.944v12.737c-0.36,0.065-0.759,0.114-1.2,0.147c-0.441,0.031-0.841,0.049-1.201,0.049
		s-0.768-0.018-1.225-0.049c-0.458-0.033-0.866-0.082-1.225-0.147V469.349z"/>
	<path fill="#AAAAAA" d="M148.209,483.115c0.065,2.744,0.775,4.752,2.131,6.026c1.355,1.273,3.356,1.91,6.001,1.91
		c2.319,0,4.523-0.408,6.614-1.225c0.261,0.49,0.473,1.086,0.637,1.788c0.163,0.703,0.261,1.396,0.294,2.082
		c-1.078,0.458-2.262,0.8-3.552,1.029c-1.291,0.228-2.719,0.343-4.287,0.343c-2.287,0-4.246-0.318-5.879-0.955
		c-1.634-0.637-2.981-1.535-4.042-2.694c-1.062-1.159-1.837-2.531-2.327-4.116c-0.49-1.583-0.735-3.322-0.735-5.217
		c0-1.862,0.237-3.602,0.71-5.218c0.473-1.617,1.2-3.021,2.18-4.214c0.98-1.191,2.212-2.139,3.699-2.841
		c1.486-0.702,3.241-1.054,5.267-1.054c1.731,0,3.25,0.294,4.556,0.882c1.306,0.588,2.401,1.396,3.283,2.425
		c0.882,1.029,1.551,2.254,2.009,3.675c0.457,1.421,0.686,2.964,0.686,4.63c0,0.458-0.017,0.939-0.049,1.445
		c-0.033,0.507-0.066,0.939-0.098,1.298H148.209z M160.653,479.49c0-0.914-0.123-1.788-0.368-2.621s-0.604-1.56-1.078-2.181
		c-0.474-0.62-1.078-1.118-1.813-1.494c-0.735-0.375-1.609-0.563-2.621-0.563c-1.992,0-3.52,0.605-4.581,1.813
		c-1.062,1.208-1.707,2.89-1.935,5.046H160.653z"/>
	<path fill="#AAAAAA" d="M175.449,483.115c0.065,2.744,0.775,4.752,2.131,6.026c1.355,1.273,3.356,1.91,6.001,1.91
		c2.319,0,4.523-0.408,6.614-1.225c0.261,0.49,0.473,1.086,0.637,1.788c0.163,0.703,0.261,1.396,0.294,2.082
		c-1.078,0.458-2.262,0.8-3.552,1.029c-1.291,0.228-2.719,0.343-4.287,0.343c-2.287,0-4.246-0.318-5.879-0.955
		c-1.634-0.637-2.981-1.535-4.042-2.694c-1.062-1.159-1.837-2.531-2.327-4.116c-0.49-1.583-0.735-3.322-0.735-5.217
		c0-1.862,0.237-3.602,0.71-5.218c0.473-1.617,1.2-3.021,2.18-4.214c0.98-1.191,2.212-2.139,3.699-2.841
		c1.486-0.702,3.241-1.054,5.267-1.054c1.731,0,3.25,0.294,4.556,0.882c1.306,0.588,2.401,1.396,3.283,2.425
		c0.882,1.029,1.551,2.254,2.009,3.675c0.457,1.421,0.686,2.964,0.686,4.63c0,0.458-0.017,0.939-0.049,1.445
		c-0.033,0.507-0.066,0.939-0.098,1.298H175.449z M187.893,479.49c0-0.914-0.123-1.788-0.368-2.621s-0.604-1.56-1.078-2.181
		c-0.474-0.62-1.078-1.118-1.813-1.494c-0.735-0.375-1.609-0.563-2.621-0.563c-1.992,0-3.52,0.605-4.581,1.813
		c-1.062,1.208-1.707,2.89-1.935,5.046H187.893z"/>
	<path fill="#AAAAAA" d="M199.062,469.349c0.359-0.064,0.702-0.114,1.029-0.146c0.326-0.032,0.669-0.049,1.029-0.049
		c0.359,0,0.718,0.017,1.078,0.049c0.359,0.032,0.686,0.082,0.98,0.146c0.098,0.49,0.196,1.136,0.294,1.936
		c0.098,0.801,0.147,1.478,0.147,2.033c0.686-1.11,1.592-2.074,2.719-2.891c1.127-0.816,2.572-1.225,4.336-1.225
		c0.261,0,0.531,0.008,0.809,0.024c0.277,0.017,0.514,0.041,0.71,0.073c0.065,0.294,0.114,0.604,0.147,0.931
		c0.032,0.327,0.049,0.67,0.049,1.029c0,0.392-0.024,0.801-0.074,1.225c-0.049,0.425-0.106,0.833-0.171,1.225
		c-0.262-0.065-0.531-0.098-0.808-0.098c-0.278,0-0.499,0-0.662,0c-0.882,0-1.723,0.122-2.523,0.367
		c-0.801,0.245-1.519,0.678-2.156,1.298c-0.637,0.621-1.144,1.47-1.519,2.548c-0.376,1.078-0.563,2.467-0.563,4.164v12.493
		c-0.36,0.065-0.759,0.114-1.2,0.147c-0.441,0.031-0.841,0.049-1.201,0.049s-0.759-0.018-1.2-0.049
		c-0.441-0.033-0.857-0.082-1.249-0.147V469.349z"/>
	<path fill="#AAAAAA" d="M216.308,489.925c0.882,0.36,1.853,0.646,2.915,0.857c1.061,0.213,2.114,0.318,3.16,0.318
		c0.751,0,1.47-0.081,2.156-0.244s1.281-0.408,1.788-0.735c0.506-0.326,0.914-0.727,1.225-1.2c0.31-0.473,0.465-1.004,0.465-1.592
		c0-0.653-0.123-1.192-0.368-1.617c-0.245-0.424-0.572-0.784-0.979-1.078c-0.409-0.294-0.882-0.546-1.421-0.759
		c-0.539-0.212-1.119-0.417-1.739-0.612l-1.715-0.637c-2.09-0.784-3.609-1.666-4.556-2.646c-0.948-0.979-1.421-2.302-1.421-3.968
		c0-2.221,0.792-3.984,2.376-5.291c1.583-1.306,3.911-1.96,6.981-1.96c1.274,0,2.523,0.123,3.748,0.367
		c1.225,0.245,2.294,0.531,3.209,0.857c-0.066,0.654-0.188,1.307-0.368,1.96c-0.18,0.653-0.4,1.258-0.661,1.812
		c-0.719-0.261-1.576-0.515-2.572-0.759c-0.997-0.245-2.066-0.368-3.209-0.368c-1.208,0-2.278,0.213-3.209,0.638
		c-0.931,0.425-1.396,1.176-1.396,2.253c0,0.556,0.114,1.029,0.343,1.421c0.228,0.392,0.539,0.728,0.931,1.005
		c0.392,0.277,0.84,0.514,1.347,0.71c0.506,0.196,1.053,0.392,1.641,0.588l2.156,0.734c0.784,0.263,1.526,0.572,2.229,0.932
		c0.702,0.359,1.306,0.808,1.812,1.347c0.506,0.539,0.914,1.193,1.225,1.96c0.31,0.768,0.465,1.69,0.465,2.768
		c0,1.209-0.245,2.312-0.735,3.308c-0.49,0.996-1.184,1.846-2.082,2.547c-0.899,0.703-1.984,1.25-3.258,1.642
		c-1.273,0.392-2.678,0.588-4.213,0.588c-1.568,0-2.939-0.106-4.116-0.318c-1.176-0.213-2.27-0.498-3.282-0.857
		c0.065-0.653,0.204-1.314,0.417-1.984C215.81,491.24,216.046,490.579,216.308,489.925z"/>
</g>
<g enable-background="new    ">
	<path fill="#AAAAAA" d="M828.551,638.909l7.152-9.356c1.109-1.47,2.106-2.76,2.988-3.871c0.882-1.109,1.625-2.131,2.229-3.062
		c0.604-0.931,1.062-1.796,1.373-2.597c0.31-0.8,0.465-1.608,0.465-2.425c0-1.372-0.482-2.433-1.445-3.185
		c-0.964-0.751-2.311-1.127-4.042-1.127c-0.719,0-1.347,0.033-1.886,0.098c-0.539,0.066-1.054,0.164-1.543,0.294
		c-0.49,0.131-0.973,0.286-1.445,0.466c-0.475,0.18-0.973,0.384-1.494,0.612c-0.426-0.914-0.793-1.845-1.104-2.793
		c-0.311-0.946-0.498-1.91-0.562-2.89c0.783-0.294,1.51-0.563,2.18-0.809s1.348-0.441,2.033-0.588
		c0.686-0.147,1.396-0.261,2.131-0.343c0.735-0.081,1.576-0.123,2.523-0.123c1.73,0,3.332,0.188,4.801,0.563
		c1.471,0.376,2.735,0.955,3.797,1.739s1.887,1.772,2.475,2.964c0.588,1.192,0.882,2.589,0.882,4.189c0,1.176-0.164,2.302-0.49,3.38
		c-0.327,1.078-0.784,2.148-1.372,3.209c-0.588,1.062-1.281,2.155-2.082,3.282s-1.689,2.344-2.67,3.65l-2.596,3.479h10.435
		c0.196,0.979,0.294,1.943,0.294,2.89c0,1.078-0.098,2.107-0.294,3.087h-22.39L828.551,638.909z"/>
	<path fill="#AAAAAA" d="M869.947,640.232c-2.188,0-4.083-0.409-5.683-1.225c-1.601-0.816-2.915-1.96-3.944-3.43
		c-1.028-1.47-1.796-3.209-2.303-5.218c-0.506-2.009-0.759-4.204-0.759-6.589c0-2.384,0.261-4.589,0.784-6.614
		c0.521-2.024,1.306-3.772,2.352-5.242c1.045-1.47,2.376-2.621,3.992-3.453c1.617-0.833,3.535-1.25,5.757-1.25
		c2.188,0,4.083,0.417,5.683,1.25c1.6,0.832,2.923,1.983,3.969,3.453c1.045,1.47,1.812,3.218,2.303,5.242
		c0.49,2.025,0.734,4.23,0.734,6.614c0,2.385-0.262,4.58-0.783,6.589c-0.523,2.009-1.307,3.748-2.352,5.218
		c-1.046,1.47-2.385,2.613-4.018,3.43C874.046,639.823,872.135,640.232,869.947,640.232z M870.045,634.354
		c1.666,0,2.965-0.857,3.896-2.572s1.396-4.385,1.396-8.01c0-3.626-0.466-6.296-1.396-8.011c-0.931-1.714-2.229-2.571-3.896-2.571
		c-1.697,0-3.029,0.857-3.992,2.571c-0.964,1.715-1.445,4.385-1.445,8.011c0,3.625,0.49,6.295,1.47,8.01
		S868.38,634.354,870.045,634.354z"/>
</g>
<g enable-background="new    ">
	<path fill="#AAAAAA" d="M892.532,630.042c-1.089,0-2.03-0.195-2.825-0.588c-0.795-0.392-1.448-0.909-1.959-1.551
		c-0.512-0.643-0.894-1.377-1.144-2.205c-0.251-0.827-0.376-1.688-0.376-2.58s0.125-1.758,0.376-2.597
		c0.25-0.838,0.632-1.578,1.144-2.221c0.511-0.643,1.164-1.16,1.959-1.552s1.736-0.588,2.825-0.588c1.067,0,1.997,0.196,2.792,0.588
		s1.454,0.909,1.977,1.552s0.909,1.383,1.16,2.221c0.25,0.839,0.375,1.704,0.375,2.597s-0.125,1.753-0.375,2.58
		c-0.251,0.828-0.638,1.562-1.16,2.205c-0.522,0.642-1.182,1.159-1.977,1.551C894.529,629.847,893.6,630.042,892.532,630.042z
		 M892.532,626.939c0.784,0,1.36-0.348,1.731-1.045c0.369-0.697,0.555-1.622,0.555-2.776c0-1.176-0.186-2.106-0.555-2.793
		c-0.371-0.686-0.947-1.028-1.731-1.028s-1.36,0.343-1.731,1.028c-0.37,0.687-0.555,1.617-0.555,2.793
		c0,1.154,0.185,2.079,0.555,2.776C891.172,626.592,891.748,626.939,892.532,626.939z M907.523,616.488
		c0.74-0.131,1.503-0.196,2.287-0.196c0.674,0,1.426,0.065,2.253,0.196l-15.808,23.091c-0.763,0.131-1.492,0.196-2.188,0.196
		c-0.74,0-1.514-0.065-2.319-0.196L907.523,616.488z M911.247,640.036c-1.089,0-2.03-0.195-2.825-0.588
		c-0.795-0.392-1.448-0.908-1.959-1.551c-0.513-0.643-0.894-1.377-1.144-2.205c-0.251-0.827-0.376-1.687-0.376-2.58
		c0-0.893,0.125-1.758,0.376-2.597c0.25-0.838,0.631-1.578,1.144-2.221c0.511-0.642,1.164-1.159,1.959-1.552
		c0.795-0.392,1.736-0.588,2.825-0.588c1.066,0,1.997,0.196,2.792,0.588c0.795,0.393,1.454,0.91,1.977,1.552
		c0.522,0.643,0.908,1.383,1.159,2.221c0.251,0.839,0.376,1.704,0.376,2.597c0,0.894-0.125,1.753-0.376,2.58
		c-0.251,0.828-0.637,1.562-1.159,2.205s-1.182,1.159-1.977,1.551C913.244,639.841,912.313,640.036,911.247,640.036z
		 M911.247,636.934c0.784,0,1.36-0.348,1.731-1.045c0.369-0.696,0.555-1.622,0.555-2.776c0-1.176-0.186-2.106-0.555-2.793
		c-0.371-0.686-0.947-1.028-1.731-1.028s-1.36,0.343-1.731,1.028c-0.37,0.687-0.555,1.617-0.555,2.793
		c0,1.154,0.185,2.08,0.555,2.776C909.887,636.586,910.463,636.934,911.247,636.934z"/>
</g>
<g enable-background="new    ">
	<path fill="#AAAAAA" d="M847.461,680.503h-13.375l-2.4,8.133c-0.425,0.065-0.85,0.114-1.273,0.147
		c-0.426,0.031-0.85,0.049-1.273,0.049c-0.459,0-0.906-0.018-1.348-0.049c-0.441-0.033-0.842-0.082-1.201-0.147l11.465-35.225
		c0.424-0.065,0.882-0.114,1.371-0.147c0.49-0.032,0.996-0.049,1.52-0.049c0.457,0,0.931,0.017,1.42,0.049
		c0.49,0.033,0.963,0.082,1.422,0.147l11.414,35.225c-0.392,0.065-0.832,0.114-1.322,0.147c-0.49,0.031-0.964,0.049-1.421,0.049
		c-0.425,0-0.857-0.018-1.298-0.049c-0.441-0.033-0.857-0.082-1.25-0.147L847.461,680.503z M835.409,676.143h10.729l-5.39-17.979
		L835.409,676.143z"/>
	<path fill="#AAAAAA" d="M859.953,663.503c0.359-0.064,0.701-0.114,1.029-0.146c0.326-0.032,0.668-0.049,1.028-0.049
		c0.358,0,0.718,0.017,1.077,0.049s0.687,0.082,0.98,0.146c0.098,0.49,0.195,1.136,0.294,1.936c0.099,0.801,0.147,1.478,0.147,2.033
		c0.686-1.11,1.592-2.074,2.719-2.891s2.572-1.225,4.336-1.225c0.261,0,0.53,0.008,0.809,0.024c0.276,0.017,0.514,0.041,0.709,0.073
		c0.066,0.294,0.115,0.604,0.147,0.931c0.032,0.327,0.05,0.67,0.05,1.029c0,0.392-0.025,0.801-0.074,1.225
		c-0.049,0.425-0.106,0.833-0.172,1.225c-0.262-0.065-0.531-0.098-0.808-0.098c-0.278,0-0.499,0-0.661,0
		c-0.883,0-1.724,0.122-2.523,0.367c-0.801,0.245-1.52,0.678-2.156,1.298c-0.637,0.621-1.143,1.47-1.518,2.548
		c-0.377,1.078-0.564,2.467-0.564,4.164v12.493c-0.359,0.065-0.759,0.114-1.199,0.147c-0.441,0.031-0.842,0.049-1.201,0.049
		s-0.76-0.018-1.2-0.049c-0.44-0.033-0.857-0.082-1.249-0.147V663.503z"/>
	<path fill="#AAAAAA" d="M879.108,667.373h-3.821l-0.195-0.686l8.426-9.406h0.393v6.222h6.368c0.13,0.556,0.196,1.176,0.196,1.862
		c0,0.359-0.018,0.702-0.049,1.028c-0.033,0.327-0.082,0.653-0.147,0.979h-6.368v11.465c0,1.371,0.057,2.466,0.171,3.282
		s0.31,1.445,0.588,1.886c0.277,0.441,0.653,0.735,1.127,0.882c0.474,0.147,1.069,0.221,1.788,0.221
		c0.555,0,1.078-0.041,1.568-0.122c0.489-0.082,0.93-0.172,1.322-0.27c0.229,0.653,0.367,1.322,0.416,2.008
		c0.049,0.687,0.074,1.291,0.074,1.813c-0.654,0.163-1.34,0.285-2.059,0.367c-0.719,0.081-1.486,0.122-2.303,0.122
		c-2.352,0-4.188-0.57-5.511-1.715c-1.323-1.143-1.984-3.037-1.984-5.683V667.373z"/>
	<path fill="#AAAAAA" d="M897.186,667.324h-3.184c-0.066-0.261-0.115-0.563-0.147-0.906s-0.049-0.678-0.049-1.004
		s0.017-0.662,0.049-1.005s0.081-0.645,0.147-0.906h7.936v25.133c-0.359,0.065-0.759,0.114-1.199,0.147
		c-0.441,0.031-0.842,0.049-1.201,0.049c-0.326,0-0.71-0.018-1.15-0.049c-0.441-0.033-0.842-0.082-1.201-0.147V667.324z
		 M896.107,657.967c-0.064-0.392-0.105-0.815-0.121-1.273c-0.018-0.457-0.025-0.865-0.025-1.225s0.008-0.768,0.025-1.225
		c0.016-0.457,0.057-0.865,0.121-1.226c0.425-0.064,0.883-0.113,1.373-0.146c0.489-0.032,0.914-0.049,1.273-0.049
		s0.783,0.017,1.273,0.049c0.49,0.033,0.932,0.082,1.322,0.146c0.066,0.36,0.106,0.769,0.123,1.226
		c0.016,0.457,0.024,0.865,0.024,1.225s-0.009,0.768-0.024,1.225c-0.017,0.458-0.057,0.882-0.123,1.273
		c-0.391,0.066-0.824,0.115-1.298,0.147s-0.89,0.049-1.249,0.049c-0.393,0-0.833-0.017-1.322-0.049
		C896.99,658.082,896.532,658.033,896.107,657.967z"/>
	<path fill="#AAAAAA" d="M909.385,684.079c0.881,0.36,1.853,0.646,2.914,0.857c1.062,0.213,2.115,0.318,3.16,0.318
		c0.751,0,1.47-0.081,2.156-0.244c0.686-0.163,1.281-0.408,1.787-0.735c0.506-0.326,0.914-0.727,1.226-1.2
		c0.31-0.473,0.466-1.004,0.466-1.592c0-0.653-0.123-1.192-0.368-1.617c-0.245-0.424-0.571-0.784-0.979-1.078
		c-0.409-0.294-0.883-0.546-1.421-0.759c-0.539-0.212-1.119-0.417-1.739-0.612l-1.715-0.637c-2.09-0.784-3.609-1.666-4.557-2.646
		c-0.947-0.979-1.42-2.302-1.42-3.968c0-2.221,0.791-3.984,2.376-5.291c1.583-1.306,3.911-1.96,6.981-1.96
		c1.273,0,2.523,0.123,3.748,0.367c1.225,0.245,2.293,0.531,3.209,0.857c-0.066,0.654-0.189,1.307-0.368,1.96
		c-0.18,0.653-0.4,1.258-0.661,1.812c-0.719-0.261-1.576-0.515-2.572-0.759c-0.996-0.245-2.066-0.368-3.209-0.368
		c-1.209,0-2.277,0.213-3.209,0.638c-0.931,0.425-1.396,1.176-1.396,2.253c0,0.556,0.114,1.029,0.344,1.421
		c0.228,0.392,0.539,0.728,0.931,1.005s0.841,0.514,1.347,0.71s1.054,0.392,1.642,0.588l2.155,0.734
		c0.784,0.263,1.527,0.572,2.229,0.932s1.306,0.808,1.812,1.347s0.914,1.193,1.226,1.96c0.31,0.768,0.465,1.69,0.465,2.768
		c0,1.209-0.245,2.312-0.734,3.308c-0.49,0.996-1.185,1.846-2.082,2.547c-0.899,0.703-1.984,1.25-3.259,1.642
		c-1.273,0.392-2.679,0.588-4.213,0.588c-1.567,0-2.939-0.106-4.116-0.318c-1.176-0.213-2.27-0.498-3.281-0.857
		c0.064-0.653,0.203-1.314,0.416-1.984C908.886,685.395,909.123,684.733,909.385,684.079z"/>
	<path fill="#AAAAAA" d="M933.047,667.373h-3.822l-0.195-0.686l8.426-9.406h0.393v6.222h6.369c0.13,0.556,0.195,1.176,0.195,1.862
		c0,0.359-0.017,0.702-0.049,1.028c-0.033,0.327-0.082,0.653-0.146,0.979h-6.369v11.465c0,1.371,0.057,2.466,0.172,3.282
		c0.113,0.816,0.31,1.445,0.588,1.886c0.277,0.441,0.652,0.735,1.127,0.882c0.473,0.147,1.068,0.221,1.787,0.221
		c0.556,0,1.078-0.041,1.568-0.122c0.49-0.082,0.931-0.172,1.322-0.27c0.229,0.653,0.367,1.322,0.417,2.008
		c0.049,0.687,0.073,1.291,0.073,1.813c-0.654,0.163-1.34,0.285-2.058,0.367c-0.719,0.081-1.486,0.122-2.303,0.122
		c-2.352,0-4.188-0.57-5.511-1.715c-1.323-1.143-1.984-3.037-1.984-5.683V667.373z"/>
	<path fill="#AAAAAA" d="M949.213,684.079c0.883,0.36,1.854,0.646,2.916,0.857c1.061,0.213,2.113,0.318,3.159,0.318
		c0.751,0,1.47-0.081,2.155-0.244c0.687-0.163,1.281-0.408,1.789-0.735c0.506-0.326,0.914-0.727,1.225-1.2
		c0.31-0.473,0.465-1.004,0.465-1.592c0-0.653-0.122-1.192-0.367-1.617c-0.244-0.424-0.572-0.784-0.979-1.078
		c-0.409-0.294-0.882-0.546-1.421-0.759c-0.539-0.212-1.119-0.417-1.739-0.612l-1.715-0.637c-2.091-0.784-3.609-1.666-4.556-2.646
		c-0.948-0.979-1.422-2.302-1.422-3.968c0-2.221,0.792-3.984,2.377-5.291c1.584-1.306,3.91-1.96,6.98-1.96
		c1.274,0,2.523,0.123,3.748,0.367c1.225,0.245,2.295,0.531,3.209,0.857c-0.065,0.654-0.188,1.307-0.367,1.96
		s-0.4,1.258-0.661,1.812c-0.719-0.261-1.576-0.515-2.572-0.759c-0.997-0.245-2.065-0.368-3.209-0.368
		c-1.208,0-2.278,0.213-3.209,0.638s-1.396,1.176-1.396,2.253c0,0.556,0.113,1.029,0.342,1.421s0.539,0.728,0.932,1.005
		c0.392,0.277,0.84,0.514,1.348,0.71c0.506,0.196,1.053,0.392,1.641,0.588l2.156,0.734c0.783,0.263,1.525,0.572,2.229,0.932
		c0.702,0.359,1.306,0.808,1.812,1.347c0.506,0.539,0.914,1.193,1.225,1.96c0.311,0.768,0.466,1.69,0.466,2.768
		c0,1.209-0.245,2.312-0.735,3.308s-1.184,1.846-2.082,2.547c-0.898,0.703-1.984,1.25-3.258,1.642s-2.678,0.588-4.213,0.588
		c-1.568,0-2.939-0.106-4.115-0.318c-1.176-0.213-2.271-0.498-3.283-0.857c0.065-0.653,0.204-1.314,0.417-1.984
		C948.715,685.395,948.951,684.733,949.213,684.079z"/>
</g>
<g enable-background="new    ">
	<path fill="#AAAAAA" d="M723.201,284.68l7.152-9.356c1.109-1.47,2.106-2.76,2.988-3.871c0.882-1.109,1.625-2.131,2.229-3.062
		c0.604-0.931,1.062-1.796,1.373-2.597c0.31-0.8,0.465-1.608,0.465-2.425c0-1.372-0.482-2.433-1.445-3.185
		c-0.964-0.751-2.311-1.127-4.042-1.127c-0.719,0-1.347,0.033-1.886,0.098c-0.539,0.066-1.054,0.164-1.543,0.294
		c-0.49,0.131-0.973,0.286-1.445,0.466c-0.475,0.18-0.973,0.384-1.494,0.612c-0.426-0.914-0.793-1.845-1.104-2.793
		c-0.311-0.946-0.498-1.91-0.562-2.89c0.783-0.294,1.51-0.563,2.18-0.809s1.348-0.441,2.033-0.588
		c0.686-0.147,1.396-0.261,2.131-0.343c0.735-0.081,1.576-0.123,2.523-0.123c1.73,0,3.332,0.188,4.801,0.563
		c1.471,0.376,2.735,0.955,3.797,1.739s1.887,1.772,2.475,2.964c0.588,1.192,0.882,2.589,0.882,4.189c0,1.176-0.164,2.302-0.49,3.38
		c-0.327,1.078-0.784,2.148-1.372,3.209c-0.588,1.062-1.281,2.155-2.082,3.282s-1.689,2.344-2.67,3.65l-2.596,3.479h10.435
		c0.196,0.979,0.294,1.943,0.294,2.89c0,1.078-0.098,2.107-0.294,3.087h-22.39L723.201,284.68z"/>
	<path fill="#AAAAAA" d="M764.598,286.003c-2.188,0-4.083-0.409-5.683-1.225c-1.601-0.816-2.915-1.96-3.944-3.43
		c-1.028-1.47-1.796-3.209-2.303-5.218c-0.506-2.009-0.759-4.204-0.759-6.589c0-2.384,0.261-4.589,0.784-6.614
		c0.521-2.024,1.306-3.772,2.352-5.242c1.045-1.47,2.376-2.621,3.992-3.453c1.617-0.833,3.535-1.25,5.757-1.25
		c2.188,0,4.083,0.417,5.683,1.25c1.6,0.832,2.923,1.983,3.969,3.453c1.045,1.47,1.812,3.218,2.303,5.242
		c0.49,2.025,0.734,4.23,0.734,6.614c0,2.385-0.262,4.58-0.783,6.589c-0.523,2.009-1.307,3.748-2.352,5.218
		c-1.046,1.47-2.385,2.613-4.018,3.43C768.696,285.594,766.785,286.003,764.598,286.003z M764.695,280.124
		c1.666,0,2.965-0.857,3.896-2.572s1.396-4.385,1.396-8.01c0-3.626-0.466-6.296-1.396-8.011c-0.931-1.714-2.229-2.571-3.896-2.571
		c-1.697,0-3.029,0.857-3.992,2.571c-0.964,1.715-1.445,4.385-1.445,8.011c0,3.625,0.49,6.295,1.47,8.01
		S763.03,280.124,764.695,280.124z"/>
</g>
<g enable-background="new    ">
	<path fill="#AAAAAA" d="M787.183,275.812c-1.089,0-2.03-0.195-2.825-0.588c-0.795-0.392-1.448-0.909-1.959-1.551
		c-0.512-0.643-0.894-1.377-1.144-2.205c-0.251-0.827-0.376-1.688-0.376-2.58s0.125-1.758,0.376-2.597
		c0.25-0.838,0.632-1.578,1.144-2.221c0.511-0.643,1.164-1.16,1.959-1.552s1.736-0.588,2.825-0.588c1.067,0,1.997,0.196,2.792,0.588
		s1.454,0.909,1.977,1.552s0.909,1.383,1.16,2.221c0.25,0.839,0.375,1.704,0.375,2.597s-0.125,1.753-0.375,2.58
		c-0.251,0.828-0.638,1.562-1.16,2.205c-0.522,0.642-1.182,1.159-1.977,1.551C789.18,275.617,788.25,275.812,787.183,275.812z
		 M787.183,272.71c0.784,0,1.36-0.348,1.731-1.045c0.369-0.697,0.555-1.622,0.555-2.776c0-1.176-0.186-2.106-0.555-2.793
		c-0.371-0.686-0.947-1.028-1.731-1.028s-1.36,0.343-1.731,1.028c-0.37,0.687-0.555,1.617-0.555,2.793
		c0,1.154,0.185,2.079,0.555,2.776C785.822,272.362,786.398,272.71,787.183,272.71z M802.174,262.259
		c0.74-0.131,1.503-0.196,2.287-0.196c0.674,0,1.426,0.065,2.253,0.196l-15.808,23.091c-0.763,0.131-1.492,0.196-2.188,0.196
		c-0.74,0-1.514-0.065-2.319-0.196L802.174,262.259z M805.897,285.807c-1.089,0-2.03-0.195-2.825-0.588
		c-0.795-0.392-1.448-0.908-1.959-1.551c-0.513-0.643-0.894-1.377-1.144-2.205c-0.251-0.827-0.376-1.687-0.376-2.58
		c0-0.893,0.125-1.758,0.376-2.597c0.25-0.838,0.631-1.578,1.144-2.221c0.511-0.642,1.164-1.159,1.959-1.552
		c0.795-0.392,1.736-0.588,2.825-0.588c1.066,0,1.997,0.196,2.792,0.588c0.795,0.393,1.454,0.91,1.977,1.552
		c0.522,0.643,0.908,1.383,1.159,2.221c0.251,0.839,0.376,1.704,0.376,2.597c0,0.894-0.125,1.753-0.376,2.58
		c-0.251,0.828-0.637,1.562-1.159,2.205s-1.182,1.159-1.977,1.551C807.895,285.611,806.964,285.807,805.897,285.807z
		 M805.897,282.704c0.784,0,1.36-0.348,1.731-1.045c0.369-0.696,0.555-1.622,0.555-2.776c0-1.176-0.186-2.106-0.555-2.793
		c-0.371-0.686-0.947-1.028-1.731-1.028s-1.36,0.343-1.731,1.028c-0.37,0.687-0.555,1.617-0.555,2.793
		c0,1.154,0.185,2.08,0.555,2.776C804.537,282.356,805.113,282.704,805.897,282.704z"/>
</g>
<g enable-background="new    ">
	<path fill="#AAAAAA" d="M724.817,299.183c1.11-0.131,2.45-0.253,4.017-0.368c1.568-0.113,3.104-0.171,4.605-0.171
		c6.174,0,10.786,1.567,13.84,4.703c3.055,3.136,4.581,7.643,4.581,13.521c0,6.141-1.56,10.697-4.679,13.669
		c-3.119,2.973-7.766,4.458-13.938,4.458c-1.536,0-3.055-0.058-4.557-0.172s-2.793-0.253-3.87-0.416V299.183z M729.814,330.292
		c0.457,0.065,1.021,0.122,1.689,0.172c0.67,0.049,1.38,0.073,2.132,0.073c1.927,0,3.683-0.221,5.267-0.661
		c1.584-0.441,2.947-1.184,4.091-2.229c1.144-1.045,2.024-2.457,2.646-4.238c0.62-1.779,0.931-4.009,0.931-6.687
		c0-2.45-0.311-4.54-0.931-6.271c-0.621-1.73-1.494-3.143-2.621-4.237c-1.127-1.094-2.475-1.887-4.042-2.376
		c-1.567-0.49-3.299-0.735-5.192-0.735c-0.621,0-1.299,0.009-2.033,0.024c-0.735,0.017-1.381,0.073-1.936,0.172V330.292z"/>
	<path fill="#AAAAAA" d="M762.246,323.041c0.065,2.744,0.775,4.752,2.131,6.026c1.355,1.273,3.356,1.91,6.002,1.91
		c2.318,0,4.523-0.408,6.613-1.225c0.262,0.49,0.474,1.086,0.638,1.788c0.163,0.703,0.261,1.396,0.294,2.082
		c-1.078,0.458-2.262,0.8-3.553,1.029c-1.29,0.228-2.719,0.343-4.286,0.343c-2.286,0-4.246-0.318-5.879-0.955
		c-1.634-0.637-2.981-1.535-4.042-2.694c-1.062-1.159-1.837-2.531-2.327-4.116c-0.489-1.583-0.735-3.322-0.735-5.217
		c0-1.862,0.237-3.602,0.711-5.218c0.473-1.617,1.2-3.021,2.18-4.214c0.98-1.191,2.213-2.139,3.699-2.841s3.241-1.054,5.267-1.054
		c1.731,0,3.249,0.294,4.556,0.882s2.401,1.396,3.283,2.425c0.882,1.029,1.551,2.254,2.009,3.675
		c0.457,1.421,0.686,2.964,0.686,4.63c0,0.458-0.017,0.939-0.049,1.445c-0.032,0.507-0.065,0.939-0.099,1.298H762.246z
		 M774.69,319.416c0-0.914-0.122-1.788-0.368-2.621c-0.244-0.833-0.604-1.56-1.077-2.181c-0.474-0.62-1.078-1.118-1.813-1.494
		c-0.734-0.375-1.608-0.563-2.621-0.563c-1.992,0-3.52,0.605-4.58,1.813c-1.062,1.208-1.707,2.89-1.936,5.046H774.69z"/>
	<path fill="#AAAAAA" d="M785.42,329.851c0.881,0.36,1.853,0.646,2.914,0.857c1.062,0.213,2.115,0.318,3.16,0.318
		c0.751,0,1.47-0.081,2.156-0.244c0.686-0.163,1.281-0.408,1.787-0.735c0.506-0.326,0.914-0.727,1.226-1.2
		c0.31-0.473,0.466-1.004,0.466-1.592c0-0.653-0.123-1.192-0.368-1.617c-0.245-0.424-0.571-0.784-0.979-1.078
		c-0.409-0.294-0.883-0.546-1.421-0.759c-0.539-0.212-1.119-0.417-1.739-0.612l-1.715-0.637c-2.09-0.784-3.609-1.666-4.557-2.646
		c-0.947-0.979-1.42-2.302-1.42-3.968c0-2.221,0.791-3.984,2.376-5.291c1.583-1.306,3.911-1.96,6.981-1.96
		c1.273,0,2.523,0.123,3.748,0.367c1.225,0.245,2.293,0.531,3.209,0.857c-0.066,0.654-0.189,1.307-0.368,1.96
		c-0.18,0.653-0.4,1.258-0.661,1.812c-0.719-0.261-1.576-0.515-2.572-0.759c-0.996-0.245-2.066-0.368-3.209-0.368
		c-1.209,0-2.277,0.213-3.209,0.638c-0.931,0.425-1.396,1.176-1.396,2.253c0,0.556,0.114,1.029,0.344,1.421
		c0.228,0.392,0.539,0.728,0.931,1.005s0.841,0.514,1.347,0.71s1.054,0.392,1.642,0.588l2.155,0.734
		c0.784,0.263,1.527,0.572,2.229,0.932s1.306,0.808,1.812,1.347s0.914,1.193,1.226,1.96c0.31,0.768,0.465,1.69,0.465,2.768
		c0,1.209-0.245,2.312-0.734,3.308c-0.49,0.996-1.185,1.846-2.082,2.547c-0.899,0.703-1.984,1.25-3.259,1.642
		c-1.273,0.392-2.679,0.588-4.213,0.588c-1.567,0-2.939-0.106-4.116-0.318c-1.176-0.213-2.27-0.498-3.281-0.857
		c0.064-0.653,0.203-1.314,0.416-1.984C784.921,331.166,785.158,330.505,785.42,329.851z"/>
	<path fill="#AAAAAA" d="M809.621,313.096h-3.186c-0.065-0.261-0.114-0.563-0.146-0.906c-0.033-0.343-0.049-0.678-0.049-1.004
		s0.016-0.662,0.049-1.005c0.032-0.343,0.081-0.645,0.146-0.906h7.938v25.133c-0.36,0.065-0.76,0.114-1.201,0.147
		c-0.44,0.031-0.841,0.049-1.199,0.049c-0.328,0-0.711-0.018-1.152-0.049c-0.44-0.033-0.841-0.082-1.199-0.147V313.096z
		 M808.543,303.738c-0.066-0.392-0.106-0.815-0.123-1.273c-0.017-0.457-0.024-0.865-0.024-1.225s0.008-0.768,0.024-1.225
		s0.057-0.865,0.123-1.226c0.424-0.064,0.881-0.113,1.371-0.146c0.49-0.032,0.914-0.049,1.274-0.049
		c0.358,0,0.784,0.017,1.273,0.049c0.49,0.033,0.931,0.082,1.323,0.146c0.064,0.36,0.105,0.769,0.122,1.226s0.024,0.865,0.024,1.225
		s-0.008,0.768-0.024,1.225c-0.017,0.458-0.058,0.882-0.122,1.273c-0.393,0.066-0.826,0.115-1.299,0.147
		c-0.474,0.032-0.891,0.049-1.249,0.049c-0.392,0-0.833-0.017-1.323-0.049S808.967,303.805,808.543,303.738z"/>
	<path fill="#AAAAAA" d="M835.732,331.174c2.906,0.065,5.014,0.686,6.32,1.861c1.306,1.176,1.959,2.793,1.959,4.851
		c0,1.339-0.342,2.539-1.028,3.601c-0.686,1.062-1.634,1.976-2.841,2.744c-1.209,0.767-2.639,1.354-4.287,1.764
		c-1.65,0.407-3.438,0.612-5.365,0.612c-3.363,0-5.928-0.523-7.691-1.568s-2.646-2.694-2.646-4.948c0-1.339,0.359-2.539,1.078-3.601
		c0.718-1.062,1.649-1.903,2.792-2.523c-0.653-0.424-1.199-0.955-1.641-1.592s-0.662-1.429-0.662-2.376
		c0-1.208,0.27-2.254,0.809-3.136s1.266-1.665,2.18-2.352c-1.077-0.751-1.943-1.722-2.596-2.915c-0.654-1.191-0.98-2.539-0.98-4.042
		c0-1.24,0.229-2.4,0.687-3.478c0.457-1.078,1.118-2.017,1.983-2.817c0.865-0.8,1.936-1.429,3.209-1.886
		c1.274-0.457,2.727-0.687,4.361-0.687c1.469,0,2.8,0.213,3.992,0.637c1.191,0.425,2.213,0.964,3.062,1.617
		c0.652-0.522,1.534-0.955,2.645-1.299c1.11-0.343,2.336-0.514,3.675-0.514c0.13,0.62,0.196,1.307,0.196,2.058
		c0,0.359-0.018,0.734-0.049,1.127c-0.033,0.392-0.082,0.783-0.147,1.176h-4.409c0.359,0.556,0.637,1.159,0.833,1.812
		s0.294,1.404,0.294,2.253c0,1.34-0.245,2.548-0.734,3.626c-0.49,1.078-1.185,2.001-2.082,2.768
		c-0.899,0.768-1.969,1.356-3.209,1.764c-1.242,0.409-2.598,0.612-4.066,0.612c-1.34,0-2.548-0.146-3.626-0.44
		c-0.458,0.262-0.906,0.661-1.347,1.2c-0.441,0.539-0.662,1.119-0.662,1.739c0,0.588,0.213,1.103,0.637,1.543
		c0.424,0.441,1.372,0.679,2.842,0.711L835.732,331.174z M829.119,335.044c-1.47-0.033-2.572,0.359-3.307,1.176
		c-0.735,0.816-1.104,1.796-1.104,2.939c0,0.718,0.148,1.307,0.441,1.764c0.295,0.457,0.711,0.824,1.25,1.103
		c0.539,0.277,1.176,0.473,1.91,0.588c0.734,0.114,1.543,0.172,2.426,0.172c2.611,0,4.653-0.434,6.123-1.299
		c1.471-0.865,2.205-1.952,2.205-3.258c0-0.979-0.311-1.731-0.932-2.254c-0.62-0.522-1.764-0.801-3.429-0.832L829.119,335.044z
		 M831.373,322.796c1.764,0,3.069-0.489,3.919-1.47c0.849-0.979,1.273-2.236,1.273-3.772c0-1.567-0.425-2.849-1.273-3.846
		c-0.85-0.995-2.155-1.494-3.919-1.494s-3.062,0.499-3.896,1.494c-0.833,0.997-1.249,2.278-1.249,3.846
		c0,1.536,0.416,2.793,1.249,3.772C828.311,322.307,829.609,322.796,831.373,322.796z"/>
	<path fill="#AAAAAA" d="M849.352,309.274c0.359-0.064,0.711-0.114,1.054-0.146s0.693-0.049,1.054-0.049
		c0.358,0,0.693,0.017,1.004,0.049s0.645,0.082,1.004,0.146c0.099,0.49,0.196,1.151,0.295,1.984
		c0.098,0.833,0.146,1.527,0.146,2.082c0.326-0.555,0.742-1.11,1.249-1.666c0.507-0.555,1.085-1.053,1.739-1.494
		c0.653-0.44,1.404-0.8,2.254-1.077c0.849-0.277,1.779-0.417,2.793-0.417c2.873,0,4.996,0.825,6.368,2.475s2.058,4.091,2.058,7.324
		v15.922c-0.359,0.065-0.768,0.114-1.225,0.147c-0.458,0.031-0.865,0.049-1.225,0.049s-0.76-0.018-1.201-0.049
		c-0.44-0.033-0.841-0.082-1.199-0.147v-14.6c0-2.318-0.36-4.024-1.078-5.119c-0.719-1.094-1.861-1.642-3.43-1.642
		c-0.914,0-1.78,0.164-2.596,0.49c-0.817,0.326-1.536,0.833-2.156,1.519c-0.621,0.686-1.119,1.576-1.494,2.67
		c-0.376,1.095-0.563,2.409-0.563,3.944v12.737c-0.36,0.065-0.759,0.114-1.2,0.147c-0.441,0.031-0.842,0.049-1.201,0.049
		s-0.768-0.018-1.225-0.049c-0.457-0.033-0.865-0.082-1.225-0.147V309.274z"/>
	<path fill="#AAAAAA" d="M881.294,323.041c0.065,2.744,0.775,4.752,2.131,6.026c1.354,1.273,3.356,1.91,6.001,1.91
		c2.319,0,4.523-0.408,6.614-1.225c0.261,0.49,0.474,1.086,0.638,1.788c0.162,0.703,0.26,1.396,0.293,2.082
		c-1.078,0.458-2.262,0.8-3.552,1.029c-1.29,0.228-2.719,0.343-4.286,0.343c-2.287,0-4.246-0.318-5.879-0.955
		c-1.635-0.637-2.981-1.535-4.043-2.694c-1.061-1.159-1.836-2.531-2.326-4.116c-0.49-1.583-0.735-3.322-0.735-5.217
		c0-1.862,0.237-3.602,0.71-5.218c0.474-1.617,1.201-3.021,2.181-4.214c0.979-1.191,2.212-2.139,3.698-2.841
		s3.242-1.054,5.268-1.054c1.73,0,3.249,0.294,4.556,0.882c1.306,0.588,2.401,1.396,3.282,2.425c0.883,1.029,1.551,2.254,2.01,3.675
		c0.457,1.421,0.686,2.964,0.686,4.63c0,0.458-0.018,0.939-0.049,1.445c-0.033,0.507-0.066,0.939-0.099,1.298H881.294z
		 M893.738,319.416c0-0.914-0.123-1.788-0.368-2.621s-0.604-1.56-1.077-2.181c-0.475-0.62-1.078-1.118-1.813-1.494
		c-0.735-0.375-1.608-0.563-2.621-0.563c-1.992,0-3.52,0.605-4.581,1.813c-1.061,1.208-1.707,2.89-1.935,5.046H893.738z"/>
	<path fill="#AAAAAA" d="M904.908,309.274c0.358-0.064,0.701-0.114,1.028-0.146c0.326-0.032,0.669-0.049,1.028-0.049
		s0.719,0.017,1.078,0.049s0.686,0.082,0.98,0.146c0.098,0.49,0.195,1.136,0.293,1.936c0.099,0.801,0.147,1.478,0.147,2.033
		c0.687-1.11,1.593-2.074,2.719-2.891c1.127-0.816,2.572-1.225,4.336-1.225c0.261,0,0.53,0.008,0.809,0.024
		c0.276,0.017,0.515,0.041,0.71,0.073c0.065,0.294,0.114,0.604,0.146,0.931c0.033,0.327,0.05,0.67,0.05,1.029
		c0,0.392-0.024,0.801-0.073,1.225c-0.049,0.425-0.107,0.833-0.172,1.225c-0.262-0.065-0.531-0.098-0.809-0.098s-0.498,0-0.661,0
		c-0.882,0-1.724,0.122-2.522,0.367c-0.801,0.245-1.52,0.678-2.156,1.298c-0.637,0.621-1.144,1.47-1.519,2.548
		c-0.376,1.078-0.563,2.467-0.563,4.164v12.493c-0.359,0.065-0.76,0.114-1.2,0.147c-0.44,0.031-0.841,0.049-1.2,0.049
		s-0.76-0.018-1.201-0.049c-0.44-0.033-0.857-0.082-1.248-0.147V309.274z"/>
	<path fill="#AAAAAA" d="M922.153,329.851c0.882,0.36,1.853,0.646,2.915,0.857c1.061,0.213,2.114,0.318,3.16,0.318
		c0.75,0,1.469-0.081,2.155-0.244s1.281-0.408,1.788-0.735c0.506-0.326,0.914-0.727,1.225-1.2c0.311-0.473,0.466-1.004,0.466-1.592
		c0-0.653-0.122-1.192-0.368-1.617c-0.244-0.424-0.571-0.784-0.979-1.078c-0.41-0.294-0.883-0.546-1.422-0.759
		c-0.539-0.212-1.119-0.417-1.738-0.612l-1.715-0.637c-2.091-0.784-3.609-1.666-4.557-2.646c-0.947-0.979-1.421-2.302-1.421-3.968
		c0-2.221,0.792-3.984,2.376-5.291c1.584-1.306,3.911-1.96,6.981-1.96c1.274,0,2.523,0.123,3.748,0.367
		c1.225,0.245,2.294,0.531,3.209,0.857c-0.065,0.654-0.188,1.307-0.368,1.96s-0.4,1.258-0.66,1.812
		c-0.719-0.261-1.576-0.515-2.572-0.759c-0.997-0.245-2.066-0.368-3.209-0.368c-1.209,0-2.278,0.213-3.209,0.638
		c-0.932,0.425-1.396,1.176-1.396,2.253c0,0.556,0.113,1.029,0.343,1.421c0.228,0.392,0.539,0.728,0.931,1.005
		c0.393,0.277,0.841,0.514,1.348,0.71c0.506,0.196,1.053,0.392,1.641,0.588l2.156,0.734c0.783,0.263,1.526,0.572,2.229,0.932
		c0.703,0.359,1.307,0.808,1.812,1.347c0.507,0.539,0.914,1.193,1.226,1.96c0.31,0.768,0.466,1.69,0.466,2.768
		c0,1.209-0.246,2.312-0.735,3.308c-0.49,0.996-1.185,1.846-2.082,2.547c-0.899,0.703-1.984,1.25-3.259,1.642
		c-1.273,0.392-2.678,0.588-4.213,0.588c-1.567,0-2.939-0.106-4.115-0.318c-1.176-0.213-2.27-0.498-3.282-0.857
		c0.065-0.653,0.204-1.314,0.417-1.984C921.654,331.166,921.892,330.505,922.153,329.851z"/>
</g>
<g enable-background="new    ">
	<path fill="#AAAAAA" d="M406.704,839.294l7.153-9.356c1.11-1.47,2.106-2.76,2.988-3.871c0.882-1.109,1.625-2.131,2.229-3.062
		c0.604-0.931,1.061-1.796,1.372-2.597c0.31-0.8,0.465-1.608,0.465-2.425c0-1.372-0.482-2.433-1.445-3.185
		c-0.964-0.751-2.311-1.127-4.042-1.127c-0.719,0-1.347,0.033-1.886,0.098c-0.539,0.066-1.053,0.164-1.543,0.294
		c-0.49,0.131-0.972,0.286-1.445,0.466c-0.474,0.18-0.972,0.384-1.494,0.612c-0.425-0.914-0.792-1.845-1.103-2.793
		c-0.311-0.946-0.498-1.91-0.563-2.89c0.784-0.294,1.511-0.563,2.18-0.809s1.348-0.441,2.033-0.588
		c0.686-0.147,1.396-0.261,2.131-0.343c0.735-0.081,1.575-0.123,2.523-0.123c1.731,0,3.332,0.188,4.801,0.563
		c1.47,0.376,2.735,0.955,3.797,1.739c1.061,0.784,1.886,1.772,2.474,2.964c0.588,1.192,0.882,2.589,0.882,4.189
		c0,1.176-0.164,2.302-0.49,3.38c-0.327,1.078-0.784,2.148-1.372,3.209c-0.588,1.062-1.282,2.155-2.082,3.282
		c-0.801,1.127-1.69,2.344-2.67,3.65l-2.596,3.479h10.435c0.196,0.979,0.294,1.943,0.294,2.89c0,1.078-0.098,2.107-0.294,3.087
		h-22.389L406.704,839.294z"/>
	<path fill="#AAAAAA" d="M448.102,840.617c-2.188,0-4.083-0.409-5.683-1.225c-1.601-0.816-2.915-1.96-3.944-3.43
		s-1.796-3.209-2.303-5.218c-0.507-2.009-0.759-4.204-0.759-6.589c0-2.384,0.261-4.589,0.784-6.614
		c0.522-2.024,1.306-3.772,2.352-5.242c1.045-1.47,2.376-2.621,3.993-3.453c1.617-0.833,3.535-1.25,5.756-1.25
		c2.188,0,4.083,0.417,5.683,1.25c1.6,0.832,2.922,1.983,3.968,3.453c1.045,1.47,1.812,3.218,2.303,5.242
		c0.49,2.025,0.735,4.23,0.735,6.614c0,2.385-0.262,4.58-0.784,6.589s-1.307,3.748-2.352,5.218c-1.045,1.47-2.384,2.613-4.017,3.43
		C452.2,840.208,450.289,840.617,448.102,840.617z M448.199,834.738c1.666,0,2.964-0.857,3.895-2.572s1.396-4.385,1.396-8.01
		c0-3.626-0.466-6.296-1.396-8.011c-0.931-1.714-2.229-2.571-3.895-2.571c-1.698,0-3.03,0.857-3.993,2.571
		c-0.964,1.715-1.445,4.385-1.445,8.011c0,3.625,0.49,6.295,1.47,8.01C445.211,833.881,446.534,834.738,448.199,834.738z"/>
</g>
<g enable-background="new    ">
	<path fill="#AAAAAA" d="M470.686,830.427c-1.089,0-2.03-0.195-2.825-0.588c-0.795-0.392-1.448-0.909-1.959-1.551
		c-0.512-0.643-0.893-1.377-1.143-2.205c-0.25-0.827-0.376-1.688-0.376-2.58s0.125-1.758,0.376-2.597
		c0.25-0.838,0.631-1.578,1.143-2.221c0.511-0.643,1.165-1.16,1.959-1.552s1.736-0.588,2.825-0.588c1.067,0,1.998,0.196,2.792,0.588
		s1.454,0.909,1.976,1.552s0.909,1.383,1.16,2.221c0.25,0.839,0.375,1.704,0.375,2.597s-0.125,1.753-0.375,2.58
		c-0.25,0.828-0.637,1.562-1.16,2.205c-0.522,0.642-1.181,1.159-1.976,1.551C472.684,830.231,471.753,830.427,470.686,830.427z
		 M470.686,827.324c0.784,0,1.361-0.348,1.731-1.045s0.555-1.622,0.555-2.776c0-1.176-0.185-2.106-0.555-2.793
		c-0.37-0.686-0.947-1.028-1.731-1.028c-0.784,0-1.361,0.343-1.731,1.028c-0.371,0.687-0.555,1.617-0.555,2.793
		c0,1.154,0.185,2.079,0.555,2.776C469.325,826.977,469.902,827.324,470.686,827.324z M485.678,816.873
		c0.74-0.131,1.502-0.196,2.286-0.196c0.675,0,1.426,0.065,2.253,0.196l-15.808,23.091c-0.763,0.131-1.492,0.196-2.188,0.196
		c-0.74,0-1.514-0.065-2.319-0.196L485.678,816.873z M489.401,840.421c-1.089,0-2.031-0.195-2.825-0.588
		c-0.795-0.392-1.448-0.908-1.959-1.551c-0.512-0.643-0.893-1.377-1.143-2.205c-0.251-0.827-0.376-1.687-0.376-2.58
		c0-0.893,0.125-1.758,0.376-2.597c0.25-0.838,0.631-1.578,1.143-2.221c0.511-0.642,1.165-1.159,1.959-1.552
		c0.794-0.392,1.736-0.588,2.825-0.588c1.066,0,1.998,0.196,2.792,0.588c0.794,0.393,1.454,0.91,1.976,1.552
		c0.522,0.643,0.909,1.383,1.159,2.221c0.25,0.839,0.376,1.704,0.376,2.597c0,0.894-0.125,1.753-0.376,2.58
		c-0.25,0.828-0.637,1.562-1.159,2.205s-1.182,1.159-1.976,1.551C491.398,840.226,490.467,840.421,489.401,840.421z
		 M489.401,837.318c0.784,0,1.36-0.348,1.731-1.045c0.37-0.696,0.555-1.622,0.555-2.776c0-1.176-0.185-2.106-0.555-2.793
		c-0.371-0.686-0.947-1.028-1.731-1.028s-1.361,0.343-1.731,1.028c-0.371,0.687-0.555,1.617-0.555,2.793
		c0,1.154,0.185,2.08,0.555,2.776C488.04,836.971,488.617,837.318,489.401,837.318z"/>
</g>
<g enable-background="new    ">
	<path fill="#AAAAAA" d="M421.842,889.608c-2.547,0-4.752-0.449-6.614-1.348c-1.862-0.897-3.405-2.155-4.63-3.771
		c-1.225-1.617-2.139-3.535-2.743-5.757c-0.605-2.221-0.907-4.654-0.907-7.3s0.302-5.078,0.907-7.3
		c0.604-2.221,1.519-4.14,2.743-5.757c1.225-1.616,2.768-2.882,4.63-3.797c1.862-0.914,4.066-1.371,6.614-1.371
		c2.548,0,4.752,0.457,6.614,1.371c1.862,0.915,3.405,2.181,4.63,3.797c1.225,1.617,2.131,3.536,2.719,5.757
		c0.588,2.222,0.882,4.654,0.882,7.3s-0.294,5.079-0.882,7.3c-0.588,2.222-1.494,4.14-2.719,5.757
		c-1.225,1.616-2.768,2.874-4.63,3.771C426.595,889.159,424.39,889.608,421.842,889.608z M421.842,885.297
		c1.633,0,3.045-0.318,4.238-0.955c1.192-0.637,2.18-1.56,2.964-2.768c0.784-1.208,1.372-2.662,1.764-4.36
		c0.392-1.698,0.588-3.626,0.588-5.781c0-2.123-0.196-4.042-0.588-5.757c-0.392-1.715-0.979-3.167-1.764-4.36
		c-0.784-1.191-1.772-2.106-2.964-2.743c-1.192-0.637-2.605-0.955-4.238-0.955c-1.633,0-3.046,0.318-4.238,0.955
		c-1.192,0.637-2.18,1.552-2.964,2.743c-0.784,1.193-1.372,2.646-1.764,4.36s-0.588,3.634-0.588,5.757
		c0,2.155,0.196,4.083,0.588,5.781s0.98,3.152,1.764,4.36s1.771,2.131,2.964,2.768C418.796,884.979,420.209,885.297,421.842,885.297
		z"/>
	<path fill="#AAAAAA" d="M444.525,867.758h-3.821l-0.196-0.686l8.426-9.406h0.392v6.222h6.369c0.13,0.556,0.196,1.176,0.196,1.862
		c0,0.359-0.017,0.702-0.049,1.028c-0.033,0.327-0.082,0.653-0.147,0.979h-6.369v11.465c0,1.371,0.057,2.466,0.171,3.282
		c0.114,0.816,0.31,1.445,0.588,1.886c0.277,0.441,0.653,0.735,1.127,0.882c0.473,0.147,1.069,0.221,1.788,0.221
		c0.555,0,1.078-0.041,1.568-0.122c0.49-0.082,0.931-0.172,1.323-0.27c0.228,0.653,0.367,1.322,0.417,2.008
		c0.049,0.687,0.073,1.291,0.073,1.813c-0.654,0.163-1.339,0.285-2.058,0.367c-0.719,0.081-1.486,0.122-2.303,0.122
		c-2.352,0-4.188-0.57-5.511-1.715c-1.323-1.143-1.984-3.037-1.984-5.683V867.758z"/>
	<path fill="#AAAAAA" d="M461.083,853.109c0.359-0.064,0.76-0.113,1.201-0.146c0.441-0.032,0.84-0.049,1.2-0.049
		c0.359,0,0.767,0.017,1.225,0.049c0.457,0.033,0.865,0.082,1.225,0.146v14.6c0.294-0.457,0.661-0.946,1.102-1.47
		c0.441-0.521,0.98-1.004,1.617-1.445c0.637-0.44,1.372-0.8,2.205-1.077s1.755-0.417,2.768-0.417c2.874,0,5.005,0.825,6.394,2.475
		c1.388,1.649,2.082,4.091,2.082,7.324v15.922c-0.36,0.065-0.759,0.114-1.2,0.147c-0.441,0.031-0.841,0.049-1.2,0.049
		c-0.36,0-0.76-0.018-1.201-0.049c-0.441-0.033-0.841-0.082-1.2-0.147v-14.6c0-2.318-0.384-4.024-1.151-5.119
		c-0.768-1.094-1.935-1.642-3.503-1.642c-0.882,0-1.731,0.155-2.547,0.466c-0.817,0.311-1.536,0.801-2.156,1.47
		c-0.621,0.67-1.11,1.543-1.47,2.621c-0.36,1.077-0.539,2.384-0.539,3.919v12.885c-0.36,0.065-0.768,0.114-1.225,0.147
		c-0.458,0.031-0.866,0.049-1.225,0.049c-0.327,0-0.719-0.018-1.176-0.049c-0.458-0.033-0.866-0.082-1.225-0.147V853.109z"/>
	<path fill="#AAAAAA" d="M493.074,877.654c0.065,2.744,0.775,4.752,2.131,6.026c1.355,1.273,3.356,1.91,6.001,1.91
		c2.319,0,4.523-0.408,6.614-1.225c0.261,0.49,0.473,1.086,0.637,1.788c0.163,0.703,0.261,1.396,0.294,2.082
		c-1.078,0.458-2.262,0.8-3.552,1.029c-1.291,0.228-2.719,0.343-4.287,0.343c-2.287,0-4.246-0.318-5.879-0.955
		c-1.634-0.637-2.981-1.535-4.042-2.694c-1.062-1.159-1.837-2.531-2.327-4.116c-0.49-1.583-0.735-3.322-0.735-5.217
		c0-1.862,0.237-3.602,0.71-5.218c0.473-1.617,1.2-3.021,2.18-4.214c0.98-1.191,2.212-2.139,3.699-2.841
		c1.486-0.702,3.241-1.054,5.267-1.054c1.731,0,3.25,0.294,4.556,0.882c1.306,0.588,2.401,1.396,3.283,2.425
		c0.882,1.029,1.551,2.254,2.009,3.675c0.457,1.421,0.686,2.964,0.686,4.63c0,0.458-0.017,0.939-0.049,1.445
		c-0.033,0.507-0.066,0.939-0.098,1.298H493.074z M505.518,874.029c0-0.914-0.123-1.788-0.368-2.621s-0.604-1.56-1.078-2.181
		c-0.474-0.62-1.078-1.118-1.813-1.494c-0.735-0.375-1.609-0.563-2.621-0.563c-1.992,0-3.52,0.605-4.581,1.813
		c-1.062,1.208-1.707,2.89-1.935,5.046H505.518z"/>
	<path fill="#AAAAAA" d="M516.688,863.888c0.359-0.064,0.702-0.114,1.029-0.146c0.326-0.032,0.669-0.049,1.029-0.049
		c0.359,0,0.718,0.017,1.078,0.049c0.359,0.032,0.686,0.082,0.98,0.146c0.098,0.49,0.196,1.136,0.294,1.936
		c0.098,0.801,0.147,1.478,0.147,2.033c0.686-1.11,1.592-2.074,2.719-2.891c1.127-0.816,2.572-1.225,4.336-1.225
		c0.261,0,0.531,0.008,0.809,0.024c0.277,0.017,0.514,0.041,0.71,0.073c0.065,0.294,0.114,0.604,0.147,0.931
		c0.032,0.327,0.049,0.67,0.049,1.029c0,0.392-0.024,0.801-0.074,1.225c-0.049,0.425-0.106,0.833-0.171,1.225
		c-0.262-0.065-0.531-0.098-0.808-0.098c-0.278,0-0.499,0-0.662,0c-0.882,0-1.723,0.122-2.523,0.367
		c-0.801,0.245-1.519,0.678-2.156,1.298c-0.637,0.621-1.144,1.47-1.519,2.548c-0.376,1.078-0.563,2.467-0.563,4.164v12.493
		c-0.36,0.065-0.759,0.114-1.2,0.147c-0.441,0.031-0.841,0.049-1.201,0.049s-0.759-0.018-1.2-0.049
		c-0.441-0.033-0.857-0.082-1.249-0.147V863.888z"/>
	<path fill="#AAAAAA" d="M547.895,853.796c0.392-0.065,0.841-0.114,1.347-0.147c0.506-0.032,0.988-0.049,1.445-0.049
		c0.457,0,0.955,0.017,1.494,0.049c0.539,0.033,0.988,0.082,1.348,0.147l9.112,22.046l9.161-22.046
		c0.326-0.065,0.734-0.114,1.225-0.147c0.49-0.032,0.963-0.049,1.421-0.049c0.425,0,0.897,0.017,1.421,0.049
		c0.521,0.033,0.963,0.082,1.322,0.147l1.666,35.225c-0.392,0.065-0.792,0.114-1.2,0.147c-0.409,0.031-0.825,0.049-1.249,0.049
		c-0.425,0-0.842-0.018-1.25-0.049c-0.408-0.033-0.791-0.082-1.15-0.147l-1.127-27.387l-8.623,20.087
		c-0.653,0.098-1.322,0.147-2.008,0.147c-0.621,0-1.242-0.05-1.862-0.147l-8.328-20.233l-1.127,27.533
		c-0.36,0.065-0.735,0.114-1.127,0.147c-0.392,0.031-0.768,0.049-1.127,0.049c-0.425,0-0.833-0.018-1.225-0.049
		c-0.392-0.033-0.768-0.082-1.127-0.147L547.895,853.796z"/>
	<path fill="#AAAAAA" d="M599.777,872.461c0-1.927-0.49-3.266-1.471-4.017c-0.979-0.751-2.4-1.127-4.262-1.127
		c-1.144,0-2.213,0.09-3.209,0.27s-1.968,0.416-2.915,0.71c-0.62-1.077-0.931-2.367-0.931-3.87c1.109-0.359,2.335-0.637,3.674-0.833
		c1.34-0.195,2.629-0.294,3.871-0.294c3.266,0,5.748,0.743,7.446,2.229s2.548,3.862,2.548,7.128v15.727
		c-1.144,0.262-2.531,0.531-4.164,0.809c-1.634,0.276-3.299,0.416-4.998,0.416c-1.6,0-3.045-0.146-4.335-0.44
		c-1.29-0.295-2.385-0.768-3.282-1.421c-0.898-0.653-1.593-1.486-2.082-2.499c-0.49-1.012-0.735-2.236-0.735-3.674
		c0-1.404,0.286-2.638,0.857-3.699c0.571-1.061,1.347-1.943,2.327-2.646s2.106-1.225,3.381-1.567
		c1.273-0.344,2.612-0.515,4.017-0.515c1.045,0,1.902,0.024,2.572,0.073c0.669,0.049,1.232,0.106,1.69,0.172V872.461z
		 M599.777,877.214c-0.49-0.065-1.111-0.131-1.861-0.196c-0.752-0.065-1.389-0.098-1.911-0.098c-2.026,0-3.569,0.376-4.63,1.127
		c-1.062,0.751-1.592,1.895-1.592,3.429c0,0.98,0.179,1.748,0.539,2.303c0.358,0.556,0.808,0.979,1.347,1.273
		s1.134,0.475,1.788,0.539c0.653,0.066,1.273,0.099,1.861,0.099c0.752,0,1.527-0.041,2.328-0.123
		c0.799-0.081,1.51-0.203,2.131-0.367V877.214z"/>
	<path fill="#AAAAAA" d="M613.445,867.709h-3.184c-0.066-0.261-0.115-0.563-0.147-0.906s-0.049-0.678-0.049-1.004
		s0.017-0.662,0.049-1.005s0.081-0.645,0.147-0.906h7.936v26.554c0,1.47-0.195,2.694-0.588,3.674
		c-0.391,0.98-0.938,1.771-1.641,2.377c-0.703,0.604-1.527,1.036-2.475,1.298c-0.947,0.261-1.977,0.392-3.086,0.392
		c-1.764,0-3.25-0.213-4.458-0.637c0.032-0.621,0.114-1.258,0.245-1.91c0.131-0.654,0.311-1.242,0.539-1.764
		c0.783,0.261,1.697,0.392,2.743,0.392c0.424,0,0.864-0.033,1.323-0.098c0.457-0.066,0.881-0.237,1.273-0.515
		c0.392-0.278,0.718-0.694,0.979-1.249c0.261-0.557,0.392-1.323,0.392-2.303V867.709z M612.27,858.303
		c-0.065-0.457-0.114-0.89-0.146-1.298c-0.033-0.408-0.049-0.792-0.049-1.151s0.016-0.743,0.049-1.151
		c0.032-0.408,0.081-0.824,0.146-1.249c0.424-0.065,0.883-0.123,1.372-0.172s0.914-0.073,1.274-0.073
		c0.358,0,0.775,0.024,1.248,0.073c0.474,0.049,0.907,0.106,1.299,0.172c0.065,0.425,0.114,0.841,0.146,1.249
		c0.033,0.408,0.05,0.792,0.05,1.151s-0.017,0.743-0.05,1.151c-0.032,0.408-0.081,0.841-0.146,1.298
		c-0.392,0.066-0.825,0.123-1.299,0.172c-0.473,0.049-0.89,0.073-1.248,0.073c-0.36,0-0.785-0.024-1.274-0.073
		S612.693,858.369,612.27,858.303z"/>
	<path fill="#AAAAAA" d="M636.227,889.608c-1.96,0-3.675-0.335-5.145-1.004c-1.47-0.67-2.694-1.593-3.674-2.769
		c-0.98-1.176-1.707-2.563-2.181-4.164c-0.474-1.6-0.71-3.331-0.71-5.193c0-1.861,0.236-3.593,0.71-5.193
		c0.474-1.6,1.2-2.988,2.181-4.164c0.979-1.176,2.204-2.106,3.674-2.792c1.47-0.687,3.185-1.029,5.145-1.029
		c1.959,0,3.674,0.343,5.144,1.029c1.47,0.686,2.694,1.616,3.675,2.792c0.979,1.176,1.706,2.564,2.18,4.164
		c0.473,1.601,0.711,3.332,0.711,5.193c0,1.862-0.238,3.594-0.711,5.193c-0.474,1.601-1.2,2.988-2.18,4.164
		c-0.98,1.176-2.205,2.099-3.675,2.769C639.9,889.273,638.186,889.608,636.227,889.608z M636.227,885.738
		c2.254,0,3.919-0.816,4.996-2.45c1.078-1.633,1.617-3.902,1.617-6.81c0-2.906-0.539-5.168-1.617-6.785
		c-1.077-1.617-2.742-2.425-4.996-2.425s-3.912,0.808-4.973,2.425c-1.062,1.617-1.592,3.879-1.592,6.785
		c0,2.907,0.529,5.177,1.592,6.81C632.314,884.922,633.973,885.738,636.227,885.738z"/>
	<path fill="#AAAAAA" d="M654.305,863.888c0.358-0.064,0.701-0.114,1.028-0.146c0.326-0.032,0.669-0.049,1.028-0.049
		s0.719,0.017,1.078,0.049s0.686,0.082,0.98,0.146c0.098,0.49,0.195,1.136,0.293,1.936c0.099,0.801,0.147,1.478,0.147,2.033
		c0.687-1.11,1.593-2.074,2.719-2.891c1.127-0.816,2.572-1.225,4.336-1.225c0.261,0,0.53,0.008,0.809,0.024
		c0.276,0.017,0.515,0.041,0.71,0.073c0.065,0.294,0.114,0.604,0.146,0.931c0.033,0.327,0.05,0.67,0.05,1.029
		c0,0.392-0.024,0.801-0.073,1.225c-0.049,0.425-0.107,0.833-0.172,1.225c-0.262-0.065-0.531-0.098-0.809-0.098s-0.498,0-0.661,0
		c-0.882,0-1.724,0.122-2.522,0.367c-0.801,0.245-1.52,0.678-2.156,1.298c-0.637,0.621-1.144,1.47-1.519,2.548
		c-0.376,1.078-0.563,2.467-0.563,4.164v12.493c-0.359,0.065-0.76,0.114-1.2,0.147c-0.44,0.031-0.841,0.049-1.2,0.049
		s-0.76-0.018-1.201-0.049c-0.44-0.033-0.857-0.082-1.248-0.147V863.888z"/>
	<path fill="#AAAAAA" d="M671.549,884.464c0.883,0.36,1.854,0.646,2.916,0.857c1.061,0.213,2.113,0.318,3.159,0.318
		c0.751,0,1.47-0.081,2.155-0.244c0.687-0.163,1.281-0.408,1.789-0.735c0.506-0.326,0.914-0.727,1.225-1.2
		c0.31-0.473,0.465-1.004,0.465-1.592c0-0.653-0.122-1.192-0.367-1.617c-0.244-0.424-0.572-0.784-0.979-1.078
		c-0.409-0.294-0.882-0.546-1.421-0.759c-0.539-0.212-1.119-0.417-1.739-0.612l-1.715-0.637c-2.091-0.784-3.609-1.666-4.556-2.646
		c-0.948-0.979-1.422-2.302-1.422-3.968c0-2.221,0.792-3.984,2.377-5.291c1.584-1.306,3.91-1.96,6.98-1.96
		c1.274,0,2.523,0.123,3.748,0.367c1.225,0.245,2.295,0.531,3.209,0.857c-0.065,0.654-0.188,1.307-0.367,1.96
		s-0.4,1.258-0.661,1.812c-0.719-0.261-1.576-0.515-2.572-0.759c-0.997-0.245-2.065-0.368-3.209-0.368
		c-1.208,0-2.278,0.213-3.209,0.638s-1.396,1.176-1.396,2.253c0,0.556,0.113,1.029,0.342,1.421s0.539,0.728,0.932,1.005
		c0.392,0.277,0.84,0.514,1.348,0.71c0.506,0.196,1.053,0.392,1.641,0.588l2.156,0.734c0.783,0.263,1.525,0.572,2.229,0.932
		c0.702,0.359,1.306,0.808,1.812,1.347c0.506,0.539,0.914,1.193,1.225,1.96c0.311,0.768,0.466,1.69,0.466,2.768
		c0,1.209-0.245,2.312-0.735,3.308s-1.184,1.846-2.082,2.547c-0.898,0.703-1.984,1.25-3.258,1.642s-2.678,0.588-4.213,0.588
		c-1.568,0-2.939-0.106-4.115-0.318c-1.176-0.213-2.271-0.498-3.283-0.857c0.065-0.653,0.204-1.314,0.417-1.984
		C671.051,885.779,671.287,885.118,671.549,884.464z"/>
</g>
</svg>
